League Gothic Condensed Italic.ufo
<glyph name="quotedbl" format="1">
  <advance width="226"/>
  <unicode hex="0022"/>
  <outline>
    <contour>
      <point x="139" y="466" type="line"/>
      <point x="205" y="735" type="line"/>
      <point x="124" y="735" type="line"/>
      <point x="76" y="466" type="line"/>
    </contour>
    <contour>
      <point x="240" y="466" type="line"/>
      <point x="306" y="735" type="line"/>
      <point x="225" y="735" type="line"/>
      <point x="177" y="466" type="line"/>
    </contour>
  </outline>
</glyph>
<glyph name="percent" format="1">
  <advance width="409"/>
  <unicode hex="0025"/>
  <outline>
    <contour>
      <point x="270" y="658" type="line"/>
      <point x="276" y="700"/>
      <point x="267" y="743"/>
      <point x="214" y="743" type="curve" smooth="yes"/>
      <point x="168" y="743"/>
      <point x="132" y="706"/>
      <point x="121" y="658" type="curve" smooth="yes"/>
      <point x="76" y="445" type="line" smooth="yes"/>
      <point x="67" y="401"/>
      <point x="82" y="359"/>
      <point x="133" y="359" type="curve" smooth="yes"/>
      <point x="180" y="359"/>
      <point x="213" y="397"/>
      <point x="225" y="445" type="curve"/>
    </contour>
    <contour>
      <point x="104" y="0" type="line"/>
      <point x="468" y="735" type="line"/>
      <point x="404" y="735" type="line"/>
      <point x="37" y="0" type="line"/>
    </contour>
    <contour>
      <point x="165" y="445" type="line" smooth="yes"/>
      <point x="163" y="434"/>
      <point x="160" y="418"/>
      <point x="145" y="418" type="curve" smooth="yes"/>
      <point x="128" y="418"/>
      <point x="133" y="434"/>
      <point x="136" y="445" type="curve"/>
      <point x="181" y="658" type="line"/>
      <point x="184" y="669"/>
      <point x="189" y="685"/>
      <point x="202" y="685" type="curve" smooth="yes"/>
      <point x="214" y="685"/>
      <point x="213" y="671"/>
      <point x="210" y="658" type="curve" smooth="yes"/>
    </contour>
    <contour>
      <point x="428" y="290" type="line"/>
      <point x="434" y="332"/>
      <point x="423" y="376"/>
      <point x="372" y="376" type="curve" smooth="yes"/>
      <point x="326" y="376"/>
      <point x="289" y="338"/>
      <point x="279" y="290" type="curve" smooth="yes"/>
      <point x="234" y="77" type="line" smooth="yes"/>
      <point x="225" y="33"/>
      <point x="241" y="-8"/>
      <point x="291" y="-8" type="curve" smooth="yes"/>
      <point x="337" y="-8"/>
      <point x="371" y="30"/>
      <point x="383" y="77" type="curve"/>
    </contour>
    <contour>
      <point x="323" y="77" type="line" smooth="yes"/>
      <point x="321" y="67"/>
      <point x="317" y="49"/>
      <point x="303" y="49" type="curve" smooth="yes"/>
      <point x="290" y="49"/>
      <point x="290" y="65"/>
      <point x="294" y="77" type="curve"/>
      <point x="339" y="290" type="line"/>
      <point x="342" y="302"/>
      <point x="347" y="317"/>
      <point x="360" y="317" type="curve" smooth="yes"/>
      <point x="372" y="317"/>
      <point x="371" y="303"/>
      <point x="368" y="290" type="curve" smooth="yes"/>
    </contour>
  </outline>
</glyph>
<glyph name="ampersand" format="1">
  <advance width="280"/>
  <unicode hex="0026"/>
  <outline>
    <contour>
      <point x="221" y="329" type="line"/>
      <point x="216" y="305"/>
      <point x="199" y="261"/>
      <point x="186" y="239" type="curve"/>
      <point x="183" y="264"/>
      <point x="181" y="319"/>
      <point x="178" y="371" type="curve"/>
      <point x="221" y="438"/>
      <point x="266" y="507"/>
      <point x="283" y="586" type="curve" smooth="yes"/>
      <point x="294" y="638"/>
      <point x="307" y="743"/>
      <point x="230" y="743" type="curve" smooth="yes"/>
      <point x="154" y="743"/>
      <point x="123" y="645"/>
      <point x="108" y="583" type="curve"/>
      <point x="93" y="509"/>
      <point x="89" y="436"/>
      <point x="94" y="367" type="curve"/>
      <point x="59" y="309"/>
      <point x="3" y="217"/>
      <point x="-12" y="142" type="curve" smooth="yes"/>
      <point x="-24" y="89"/>
      <point x="-22" y="-8"/>
      <point x="62" y="-8" type="curve" smooth="yes"/>
      <point x="95" y="-8"/>
      <point x="130" y="7"/>
      <point x="152" y="45" type="curve"/>
      <point x="162" y="20"/>
      <point x="165" y="5"/>
      <point x="206" y="-8" type="curve"/>
      <point x="228" y="96" type="line"/>
      <point x="215" y="104"/>
      <point x="201" y="117"/>
      <point x="199" y="126" type="curve"/>
      <point x="232" y="186"/>
      <point x="269" y="250"/>
      <point x="285" y="317" type="curve"/>
    </contour>
    <contour>
      <point x="206" y="555"/>
      <point x="185" y="508"/>
      <point x="168" y="476" type="curve"/>
      <point x="164" y="508"/>
      <point x="173" y="567"/>
      <point x="177" y="586" type="curve" smooth="yes"/>
      <point x="183" y="614"/>
      <point x="196" y="657"/>
      <point x="210" y="657" type="curve" smooth="yes"/>
      <point x="224" y="657"/>
      <point x="221" y="617"/>
      <point x="213" y="586" type="curve" smooth="yes"/>
    </contour>
    <contour>
      <point x="111" y="80"/>
      <point x="92" y="79"/>
      <point x="84" y="79" type="curve" smooth="yes"/>
      <point x="64" y="79"/>
      <point x="62" y="113"/>
      <point x="68" y="143" type="curve" smooth="yes"/>
      <point x="75" y="177"/>
      <point x="89" y="206"/>
      <point x="114" y="264" type="curve"/>
      <point x="116" y="233"/>
      <point x="122" y="175"/>
      <point x="133" y="127" type="curve"/>
    </contour>
  </outline>
</glyph>
<glyph name="comma" format="1">
  <advance width="121"/>
  <unicode hex="002C"/>
  <outline>
    <contour>
      <point x="109" y="111" type="line"/>
      <point x="28" y="111" type="line"/>
      <point x="4" y="0" type="line"/>
      <point x="29" y="0" type="line"/>
      <point x="-22" y="-130" type="line"/>
      <point x="25" y="-130" type="line"/>
      <point x="85" y="0" type="line"/>
    </contour>
  </outline>
</glyph>
<glyph name="zero" format="1">
  <advance width="242"/>
  <unicode hex="0030"/>
  <outline>
    <contour>
      <point x="297" y="594" type="line" smooth="yes"/>
      <point x="310" y="654"/>
      <point x="308" y="743"/>
      <point x="228" y="743" type="curve" smooth="yes"/>
      <point x="153" y="743"/>
      <point x="112" y="670"/>
      <point x="96" y="594" type="curve" smooth="yes"/>
      <point x="0" y="141" type="line" smooth="yes"/>
      <point x="-14" y="71"/>
      <point x="-8" y="-8"/>
      <point x="69" y="-8" type="curve" smooth="yes"/>
      <point x="145" y="-8"/>
      <point x="184" y="65"/>
      <point x="200" y="141" type="curve" smooth="yes"/>
    </contour>
    <contour>
      <point x="117" y="141" type="line"/>
      <point x="113" y="118"/>
      <point x="102" y="97"/>
      <point x="92" y="97" type="curve" smooth="yes"/>
      <point x="83" y="97"/>
      <point x="79" y="114"/>
      <point x="84" y="141" type="curve" smooth="yes"/>
      <point x="181" y="594" type="line" smooth="yes"/>
      <point x="186" y="618"/>
      <point x="196" y="638"/>
      <point x="207" y="638" type="curve" smooth="yes"/>
      <point x="218" y="638"/>
      <point x="219" y="617"/>
      <point x="214" y="594" type="curve" smooth="yes"/>
    </contour>
  </outline>
</glyph>
<glyph name="three" format="1">
  <advance width="231"/>
  <unicode hex="0033"/>
  <outline>
    <contour>
      <point x="142" y="329"/>
      <point x="145" y="298"/>
      <point x="123" y="187" type="curve" smooth="yes"/>
      <point x="116" y="155"/>
      <point x="101" y="87"/>
      <point x="85" y="87" type="curve" smooth="yes"/>
      <point x="68" y="87"/>
      <point x="84" y="168"/>
      <point x="94" y="212" type="curve"/>
      <point x="13" y="212" type="line"/>
      <point x="0" y="151"/>
      <point x="-32" y="-8"/>
      <point x="65" y="-8" type="curve" smooth="yes"/>
      <point x="150" y="-8"/>
      <point x="184" y="92"/>
      <point x="204" y="188" type="curve" smooth="yes"/>
      <point x="227" y="295"/>
      <point x="221" y="352"/>
      <point x="192" y="375" type="curve"/>
      <point x="241" y="422"/>
      <point x="263" y="472"/>
      <point x="286" y="579" type="curve" smooth="yes"/>
      <point x="298" y="636"/>
      <point x="302" y="743"/>
      <point x="221" y="743" type="curve" smooth="yes"/>
      <point x="129" y="743"/>
      <point x="91" y="597"/>
      <point x="76" y="523" type="curve"/>
      <point x="158" y="523" type="line"/>
      <point x="167" y="565"/>
      <point x="186" y="645"/>
      <point x="202" y="645" type="curve" smooth="yes"/>
      <point x="217" y="645"/>
      <point x="202" y="577"/>
      <point x="196" y="548" type="curve" smooth="yes"/>
      <point x="183" y="487"/>
      <point x="173" y="425"/>
      <point x="114" y="421" type="curve"/>
      <point x="95" y="332" type="line"/>
    </contour>
  </outline>
</glyph>
<glyph name="four" format="1">
  <advance width="234"/>
  <unicode hex="0034"/>
  <outline>
    <contour>
      <point x="74" y="0" type="line"/>
      <point x="145" y="0" type="line"/>
      <point x="180" y="160" type="line"/>
      <point x="210" y="160" type="line"/>
      <point x="230" y="255" type="line"/>
      <point x="200" y="255" type="line"/>
      <point x="302" y="735" type="line"/>
      <point x="221" y="735" type="line"/>
      <point x="16" y="255" type="line"/>
      <point x="-3" y="160" type="line"/>
      <point x="109" y="160" type="line"/>
    </contour>
    <contour>
      <point x="131" y="255" type="line"/>
      <point x="86" y="255" type="line"/>
      <point x="179" y="482" type="line"/>
    </contour>
  </outline>
</glyph>
<glyph name="five" format="1">
  <advance width="236"/>
  <unicode hex="0035"/>
  <outline>
    <contour>
      <point x="124" y="164" type="line" smooth="yes"/>
      <point x="111" y="106"/>
      <point x="99" y="86"/>
      <point x="89" y="86" type="curve" smooth="yes"/>
      <point x="79" y="86"/>
      <point x="83" y="128"/>
      <point x="91" y="165" type="curve" smooth="yes"/>
      <point x="101" y="214" type="line"/>
      <point x="19" y="214" type="line"/>
      <point x="6" y="152"/>
      <point x="-34" y="-8"/>
      <point x="65" y="-8" type="curve" smooth="yes"/>
      <point x="154" y="-8"/>
      <point x="190" y="100"/>
      <point x="207" y="174" type="curve" smooth="yes"/>
      <point x="244" y="348" type="line" smooth="yes"/>
      <point x="255" y="402"/>
      <point x="272" y="500"/>
      <point x="201" y="500" type="curve" smooth="yes"/>
      <point x="185" y="500"/>
      <point x="157" y="484"/>
      <point x="152" y="471" type="curve"/>
      <point x="185" y="628" type="line"/>
      <point x="285" y="628" type="line"/>
      <point x="308" y="735" type="line"/>
      <point x="134" y="735" type="line"/>
      <point x="52" y="348" type="line"/>
      <point x="124" y="348" type="line"/>
      <point x="126" y="358"/>
      <point x="140" y="402"/>
      <point x="156" y="402" type="curve" smooth="yes"/>
      <point x="166" y="402"/>
      <point x="169" y="379"/>
      <point x="163" y="348" type="curve" smooth="yes"/>
    </contour>
  </outline>
</glyph>
<glyph name="seven" format="1">
  <advance width="203"/>
  <unicode hex="0037"/>
  <outline>
    <contour>
      <point x="-13" y="0" type="line"/>
      <point x="71" y="0" type="line"/>
      <point x="270" y="627" type="line"/>
      <point x="293" y="735" type="line"/>
      <point x="111" y="735" type="line"/>
      <point x="88" y="628" type="line"/>
      <point x="186" y="628" type="line"/>
    </contour>
  </outline>
</glyph>
<glyph name="eight" format="1">
  <advance width="234"/>
  <unicode hex="0038"/>
  <outline>
    <contour>
      <point x="231" y="283" type="line" smooth="yes"/>
      <point x="242" y="335"/>
      <point x="234" y="373"/>
      <point x="211" y="388" type="curve"/>
      <point x="242" y="410"/>
      <point x="260" y="435"/>
      <point x="270" y="483" type="curve" smooth="yes"/>
      <point x="300" y="625" type="line" smooth="yes"/>
      <point x="312" y="678"/>
      <point x="300" y="743"/>
      <point x="230" y="743" type="curve" smooth="yes"/>
      <point x="165" y="743"/>
      <point x="122" y="682"/>
      <point x="110" y="625" type="curve" smooth="yes"/>
      <point x="80" y="483" type="line" smooth="yes"/>
      <point x="70" y="435"/>
      <point x="81" y="411"/>
      <point x="99" y="388" type="curve"/>
      <point x="71" y="365"/>
      <point x="46" y="335"/>
      <point x="35" y="283" type="curve" smooth="yes"/>
      <point x="1" y="127" type="line"/>
      <point x="-9" y="71"/>
      <point x="-1" y="-8"/>
      <point x="71" y="-8" type="curve" smooth="yes"/>
      <point x="142" y="-8"/>
      <point x="184" y="65"/>
      <point x="197" y="127" type="curve" smooth="yes"/>
    </contour>
    <contour>
      <point x="125" y="166"/>
      <point x="119" y="141"/>
      <point x="115" y="122" type="curve" smooth="yes"/>
      <point x="111" y="103"/>
      <point x="99" y="89"/>
      <point x="91" y="89" type="curve" smooth="yes"/>
      <point x="81" y="89"/>
      <point x="77" y="102"/>
      <point x="82" y="123" type="curve"/>
      <point x="86" y="144"/>
      <point x="90" y="162"/>
      <point x="98" y="200" type="curve" smooth="yes"/>
      <point x="105" y="231"/>
      <point x="113" y="270"/>
      <point x="117" y="289" type="curve" smooth="yes"/>
      <point x="121" y="309"/>
      <point x="128" y="332"/>
      <point x="143" y="332" type="curve" smooth="yes"/>
      <point x="155" y="332"/>
      <point x="156" y="311"/>
      <point x="151" y="290" type="curve"/>
      <point x="147" y="269"/>
      <point x="141" y="244"/>
      <point x="132" y="200" type="curve" smooth="yes"/>
    </contour>
    <contour>
      <point x="195" y="496"/>
      <point x="192" y="481"/>
      <point x="188" y="462" type="curve" smooth="yes"/>
      <point x="184" y="443"/>
      <point x="172" y="429"/>
      <point x="164" y="429" type="curve" smooth="yes"/>
      <point x="154" y="429"/>
      <point x="149" y="442"/>
      <point x="154" y="463" type="curve"/>
      <point x="158" y="484"/>
      <point x="160" y="492"/>
      <point x="168" y="530" type="curve" smooth="yes"/>
      <point x="175" y="561"/>
      <point x="181" y="590"/>
      <point x="185" y="609" type="curve" smooth="yes"/>
      <point x="189" y="629"/>
      <point x="196" y="651"/>
      <point x="211" y="651" type="curve" smooth="yes"/>
      <point x="223" y="651"/>
      <point x="224" y="631"/>
      <point x="219" y="610" type="curve"/>
      <point x="215" y="589"/>
      <point x="212" y="574"/>
      <point x="202" y="530" type="curve" smooth="yes"/>
    </contour>
  </outline>
</glyph>
<glyph name="nine" format="1">
  <advance width="235"/>
  <unicode hex="0039"/>
  <outline>
    <contour>
      <point x="50" y="414" type="line" smooth="yes"/>
      <point x="39" y="362"/>
      <point x="27" y="279"/>
      <point x="104" y="279" type="curve" smooth="yes"/>
      <point x="119" y="279"/>
      <point x="139" y="290"/>
      <point x="142" y="296" type="curve"/>
      <point x="114" y="160" type="line" smooth="yes"/>
      <point x="112" y="151"/>
      <point x="98" y="86"/>
      <point x="82" y="86" type="curve" smooth="yes"/>
      <point x="64" y="86"/>
      <point x="84" y="179"/>
      <point x="91" y="212" type="curve"/>
      <point x="11" y="212" type="line"/>
      <point x="0" y="160" type="line" smooth="yes"/>
      <point x="-12" y="100"/>
      <point x="-25" y="-8"/>
      <point x="62" y="-8" type="curve" smooth="yes"/>
      <point x="147" y="-8"/>
      <point x="180" y="88"/>
      <point x="197" y="160" type="curve" smooth="yes"/>
      <point x="289" y="594" type="line" smooth="yes"/>
      <point x="300" y="646"/>
      <point x="306" y="743"/>
      <point x="226" y="743" type="curve" smooth="yes"/>
      <point x="148" y="743"/>
      <point x="104" y="660"/>
      <point x="89" y="594" type="curve" smooth="yes"/>
    </contour>
    <contour>
      <point x="163" y="393" type="line"/>
      <point x="160" y="382"/>
      <point x="154" y="363"/>
      <point x="139" y="363" type="curve" smooth="yes"/>
      <point x="123" y="363"/>
      <point x="125" y="387"/>
      <point x="127" y="396" type="curve" smooth="yes"/>
      <point x="171" y="606" type="line" smooth="yes"/>
      <point x="174" y="620"/>
      <point x="183" y="649"/>
      <point x="199" y="649" type="curve" smooth="yes"/>
      <point x="214" y="649"/>
      <point x="211" y="620"/>
      <point x="208" y="606" type="curve" smooth="yes"/>
    </contour>
  </outline>
</glyph>
<glyph name="colon" format="1">
  <advance width="136"/>
  <unicode hex="003A"/>
  <outline>
    <contour>
      <point x="76" y="436" type="line"/>
      <point x="157" y="436" type="line"/>
      <point x="181" y="547" type="line"/>
      <point x="100" y="547" type="line"/>
    </contour>
    <contour>
      <point x="-16" y="0" type="line"/>
      <point x="64" y="0" type="line"/>
      <point x="88" y="111" type="line"/>
      <point x="7" y="111" type="line"/>
    </contour>
  </outline>
</glyph>
<glyph name="semicolon" format="1">
  <advance width="136"/>
  <unicode hex="003B"/>
  <outline>
    <contour>
      <point x="83" y="436" type="line"/>
      <point x="164" y="436" type="line"/>
      <point x="188" y="547" type="line"/>
      <point x="107" y="547" type="line"/>
    </contour>
    <contour>
      <point x="95" y="111" type="line"/>
      <point x="14" y="111" type="line"/>
      <point x="-9" y="0" type="line"/>
      <point x="15" y="0" type="line"/>
      <point x="-36" y="-130" type="line"/>
      <point x="11" y="-130" type="line"/>
      <point x="71" y="0" type="line"/>
    </contour>
  </outline>
</glyph>
<glyph name="greater" format="1">
  <advance width="340"/>
  <unicode hex="003E"/>
  <outline>
    <contour>
      <point x="343" y="392" type="line"/>
      <point x="111" y="640" type="line"/>
      <point x="88" y="533" type="line"/>
      <point x="257" y="356" type="line"/>
      <point x="13" y="179" type="line"/>
      <point x="-9" y="72" type="line"/>
      <point x="328" y="320" type="line"/>
    </contour>
  </outline>
</glyph>
<glyph name="A" format="1">
  <advance width="254"/>
  <unicode hex="0041"/>
  <outline>
    <contour>
      <point x="38" y="0" type="line"/>
      <point x="81" y="150" type="line"/>
      <point x="127" y="150" type="line"/>
      <point x="106" y="0" type="line"/>
      <point x="187" y="0" type="line"/>
      <point x="278" y="735" type="line"/>
      <point x="181" y="735" type="line"/>
      <point x="-42" y="0" type="line"/>
    </contour>
    <contour>
      <point x="145" y="264" type="line"/>
      <point x="114" y="264" type="line"/>
      <point x="191" y="556" type="line"/>
    </contour>
    <contour>
      <point x="229" y="10" type="move" name="ogonek"/>
    </contour>
    <contour>
      <point x="127" y="735" type="move" name="top"/>
    </contour>
  </outline>
</glyph>
<glyph name="C" format="1">
  <advance width="238"/>
  <unicode hex="0043"/>
  <outline>
    <contour>
      <point x="139" y="252" type="line"/>
      <point x="115" y="141" type="line" smooth="yes"/>
      <point x="112" y="127"/>
      <point x="105" y="97"/>
      <point x="89" y="97" type="curve" smooth="yes"/>
      <point x="77" y="97"/>
      <point x="81" y="127"/>
      <point x="84" y="141" type="curve" smooth="yes"/>
      <point x="182" y="598" type="line" smooth="yes"/>
      <point x="185" y="614"/>
      <point x="191" y="638"/>
      <point x="204" y="638" type="curve" smooth="yes"/>
      <point x="220" y="638"/>
      <point x="215" y="607"/>
      <point x="212" y="594" type="curve" smooth="yes"/>
      <point x="188" y="483" type="line"/>
      <point x="269" y="483" type="line"/>
      <point x="293" y="594" type="line" smooth="yes"/>
      <point x="304" y="646"/>
      <point x="305" y="743"/>
      <point x="225" y="743" type="curve" smooth="yes"/>
      <point x="150" y="743"/>
      <point x="110" y="659"/>
      <point x="96" y="594" type="curve" smooth="yes"/>
      <point x="0" y="141" type="line" smooth="yes"/>
      <point x="-13" y="76"/>
      <point x="-11" y="-8"/>
      <point x="66" y="-8" type="curve" smooth="yes"/>
      <point x="142" y="-8"/>
      <point x="180" y="64"/>
      <point x="196" y="141" type="curve" smooth="yes"/>
      <point x="220" y="252" type="line"/>
    </contour>
    <contour>
      <point x="119" y="735" type="move" name="top"/>
    </contour>
    <contour>
      <point x="119" y="0" type="move" name="bottom"/>
    </contour>
  </outline>
</glyph>
<glyph name="D" format="1">
  <advance width="253"/>
  <unicode hex="0044"/>
  <outline>
    <contour>
      <point x="55" y="0" type="line" smooth="yes"/>
      <point x="121" y="0"/>
      <point x="151" y="26"/>
      <point x="172" y="65" type="curve" smooth="yes"/>
      <point x="197" y="109"/>
      <point x="221" y="223"/>
      <point x="252" y="367" type="curve" smooth="yes"/>
      <point x="282" y="511"/>
      <point x="300" y="603"/>
      <point x="295" y="659" type="curve"/>
      <point x="288" y="715"/>
      <point x="267" y="735"/>
      <point x="201" y="735" type="curve" smooth="yes"/>
      <point x="132" y="735" type="line"/>
      <point x="-24" y="0" type="line"/>
    </contour>
    <contour>
      <point x="192" y="627" type="line"/>
      <point x="204" y="626"/>
      <point x="219" y="629"/>
      <point x="217" y="603" type="curve" smooth="yes"/>
      <point x="212" y="558"/>
      <point x="195" y="487"/>
      <point x="163" y="336" type="curve" smooth="yes"/>
      <point x="144" y="248"/>
      <point x="125" y="156"/>
      <point x="117" y="132" type="curve"/>
      <point x="106" y="104"/>
      <point x="94" y="108"/>
      <point x="81" y="108" type="curve"/>
    </contour>
    <contour>
      <point x="127" y="368" type="move" name="center"/>
    </contour>
    <contour>
      <point x="127" y="735" type="move" name="top"/>
    </contour>
  </outline>
</glyph>
<glyph name="E" format="1">
  <advance width="214"/>
  <unicode hex="0045"/>
  <outline>
    <contour>
      <point x="-24" y="0" type="line"/>
      <point x="141" y="0" type="line"/>
      <point x="165" y="111" type="line"/>
      <point x="82" y="111" type="line"/>
      <point x="125" y="313" type="line"/>
      <point x="185" y="313" type="line"/>
      <point x="210" y="431" type="line"/>
      <point x="150" y="431" type="line"/>
      <point x="191" y="624" type="line"/>
      <point x="274" y="624" type="line"/>
      <point x="298" y="735" type="line"/>
      <point x="132" y="735" type="line"/>
    </contour>
  </outline>
</glyph>
<glyph name="F" format="1">
  <advance width="211"/>
  <unicode hex="0046"/>
  <outline>
    <contour>
      <point x="304" y="735" type="line"/>
      <point x="132" y="735" type="line"/>
      <point x="-24" y="0" type="line"/>
      <point x="58" y="0" type="line"/>
      <point x="127" y="320" type="line"/>
      <point x="187" y="320" type="line"/>
      <point x="210" y="431" type="line"/>
      <point x="150" y="431" type="line"/>
      <point x="191" y="624" type="line"/>
      <point x="280" y="624" type="line"/>
    </contour>
  </outline>
</glyph>
<glyph name="G" format="1">
  <advance width="246"/>
  <unicode hex="0047"/>
  <outline>
    <contour>
      <point x="268" y="471" type="line"/>
      <point x="294" y="594" type="line" smooth="yes"/>
      <point x="306" y="653"/>
      <point x="306" y="743"/>
      <point x="226" y="743" type="curve" smooth="yes"/>
      <point x="151" y="743"/>
      <point x="110" y="660"/>
      <point x="96" y="594" type="curve" smooth="yes"/>
      <point x="0" y="141" type="line" smooth="yes"/>
      <point x="-11" y="89"/>
      <point x="-14" y="-8"/>
      <point x="59" y="-8" type="curve" smooth="yes"/>
      <point x="77" y="-8"/>
      <point x="108" y="9"/>
      <point x="121" y="27" type="curve"/>
      <point x="124" y="0" type="line"/>
      <point x="167" y="0" type="line"/>
      <point x="245" y="366" type="line"/>
      <point x="150" y="366" type="line"/>
      <point x="131" y="275" type="line"/>
      <point x="149" y="275" type="line"/>
      <point x="119" y="132" type="line" smooth="yes"/>
      <point x="115" y="114"/>
      <point x="107" y="88"/>
      <point x="89" y="88" type="curve" smooth="yes"/>
      <point x="77" y="88"/>
      <point x="77" y="109"/>
      <point x="82" y="132" type="curve" smooth="yes"/>
      <point x="180" y="594" type="line" smooth="yes"/>
      <point x="184" y="612"/>
      <point x="193" y="638"/>
      <point x="204" y="638" type="curve" smooth="yes"/>
      <point x="218" y="638"/>
      <point x="214" y="609"/>
      <point x="211" y="594" type="curve" smooth="yes"/>
      <point x="185" y="471" type="line"/>
    </contour>
    <contour>
      <point x="123" y="735" type="move" name="top"/>
    </contour>
    <contour>
      <point x="123" y="0" type="move" name="bottom"/>
    </contour>
  </outline>
</glyph>
<glyph name="H" format="1">
  <advance width="258"/>
  <unicode hex="0048"/>
  <outline>
    <contour>
      <point x="90" y="0" type="line"/>
      <point x="173" y="0" type="line"/>
      <point x="330" y="735" type="line"/>
      <point x="247" y="735" type="line"/>
      <point x="182" y="431" type="line"/>
      <point x="150" y="431" type="line"/>
      <point x="215" y="735" type="line"/>
      <point x="132" y="735" type="line"/>
      <point x="-24" y="0" type="line"/>
      <point x="58" y="0" type="line"/>
      <point x="127" y="320" type="line"/>
      <point x="159" y="320" type="line"/>
    </contour>
    <contour>
      <point x="129" y="368" type="move" name="center"/>
    </contour>
    <contour>
      <point x="129" y="735" type="move" name="top"/>
    </contour>
  </outline>
</glyph>
<glyph name="K" format="1">
  <advance width="255"/>
  <unicode hex="004B"/>
  <outline>
    <contour>
      <point x="132" y="735" type="line"/>
      <point x="-24" y="0" type="line"/>
      <point x="55" y="0" type="line"/>
      <point x="130" y="350" type="line"/>
      <point x="107" y="0" type="line"/>
      <point x="188" y="0" type="line"/>
      <point x="217" y="466" type="line"/>
      <point x="347" y="735" type="line"/>
      <point x="266" y="735" type="line"/>
      <point x="167" y="524" type="line"/>
      <point x="212" y="735" type="line"/>
    </contour>
    <contour>
      <point x="128" y="735" type="move" name="top"/>
    </contour>
    <contour>
      <point x="128" y="0" type="move" name="bottom"/>
    </contour>
  </outline>
</glyph>
<glyph name="S" format="1">
  <advance width="236"/>
  <unicode hex="0053"/>
  <outline>
    <contour>
      <point x="281" y="549" type="line"/>
      <point x="294" y="610"/>
      <point x="319" y="745"/>
      <point x="222" y="743" type="curve" smooth="yes"/>
      <point x="142" y="741"/>
      <point x="106" y="635"/>
      <point x="93" y="571" type="curve" smooth="yes"/>
      <point x="81" y="514"/>
      <point x="88" y="441"/>
      <point x="98" y="382" type="curve" smooth="yes"/>
      <point x="119" y="279"/>
      <point x="130" y="224"/>
      <point x="117" y="162" type="curve" smooth="yes"/>
      <point x="107" y="115"/>
      <point x="100" y="91"/>
      <point x="85" y="91" type="curve" smooth="yes"/>
      <point x="63" y="91"/>
      <point x="85" y="194"/>
      <point x="90" y="217" type="curve"/>
      <point x="6" y="205" type="line"/>
      <point x="-7" y="138"/>
      <point x="-40" y="-8"/>
      <point x="64" y="-8" type="curve" smooth="yes"/>
      <point x="150" y="-8"/>
      <point x="185" y="97"/>
      <point x="200" y="167" type="curve" smooth="yes"/>
      <point x="216" y="241"/>
      <point x="203" y="311"/>
      <point x="186" y="398" type="curve" smooth="yes"/>
      <point x="173" y="471"/>
      <point x="164" y="523"/>
      <point x="174" y="571" type="curve" smooth="yes"/>
      <point x="183" y="614"/>
      <point x="191" y="644"/>
      <point x="203" y="644" type="curve" smooth="yes"/>
      <point x="219" y="644"/>
      <point x="202" y="563"/>
      <point x="197" y="537" type="curve"/>
    </contour>
    <contour>
      <point x="118" y="735" type="move" name="top"/>
    </contour>
    <contour>
      <point x="118" y="0" type="move" name="bottom"/>
    </contour>
  </outline>
</glyph>
<glyph name="T" format="1">
  <advance width="220"/>
  <unicode hex="0054"/>
  <outline>
    <contour>
      <point x="146" y="624" type="line"/>
      <point x="13" y="0" type="line"/>
      <point x="96" y="0" type="line"/>
      <point x="229" y="624" type="line"/>
      <point x="290" y="624" type="line"/>
      <point x="314" y="735" type="line"/>
      <point x="109" y="735" type="line"/>
      <point x="85" y="624" type="line"/>
    </contour>
  </outline>
</glyph>
<glyph name="W" format="1">
  <advance width="334"/>
  <unicode hex="0057"/>
  <outline>
    <contour>
      <point x="140" y="0" type="line"/>
      <point x="211" y="0" type="line"/>
      <point x="422" y="735" type="line"/>
      <point x="344" y="735" type="line"/>
      <point x="315" y="627"/>
      <point x="280" y="499"/>
      <point x="251" y="391" type="curve"/>
      <point x="299" y="735" type="line"/>
      <point x="238" y="735" type="line"/>
      <point x="140" y="390" type="line"/>
      <point x="193" y="735" type="line"/>
      <point x="115" y="735" type="line"/>
      <point x="14" y="0" type="line"/>
      <point x="84" y="0" type="line"/>
      <point x="187" y="352" type="line"/>
    </contour>
    <contour>
      <point x="167" y="735" type="move" name="top"/>
    </contour>
  </outline>
</glyph>
<glyph name="X" format="1">
  <advance width="246"/>
  <unicode hex="0058"/>
  <outline>
    <contour>
      <point x="99" y="0" type="line"/>
      <point x="180" y="0" type="line"/>
      <point x="188" y="260" type="line" smooth="yes"/>
      <point x="189" y="302"/>
      <point x="191" y="345"/>
      <point x="192" y="386" type="curve"/>
      <point x="336" y="735" type="line"/>
      <point x="254" y="735" type="line"/>
      <point x="232" y="676"/>
      <point x="208" y="616"/>
      <point x="187" y="557" type="curve"/>
      <point x="196" y="735" type="line"/>
      <point x="114" y="735" type="line"/>
      <point x="112" y="560" type="line" smooth="yes"/>
      <point x="110" y="505"/>
      <point x="110" y="441"/>
      <point x="110" y="386" type="curve"/>
      <point x="-43" y="0" type="line"/>
      <point x="37" y="0" type="line"/>
      <point x="112" y="203" type="line"/>
    </contour>
  </outline>
</glyph>
<glyph name="Y" format="1">
  <advance width="235"/>
  <unicode hex="0059"/>
  <outline>
    <contour>
      <point x="197" y="735" type="line"/>
      <point x="115" y="735" type="line"/>
      <point x="94" y="313" type="line"/>
      <point x="27" y="0" type="line"/>
      <point x="110" y="0" type="line"/>
      <point x="177" y="313" type="line"/>
      <point x="336" y="735" type="line"/>
      <point x="254" y="735" type="line"/>
      <point x="229" y="663"/>
      <point x="203" y="592"/>
      <point x="179" y="521" type="curve"/>
    </contour>
    <contour>
      <point x="118" y="735" type="move" name="top"/>
    </contour>
  </outline>
</glyph>
<glyph name="Z" format="1">
  <advance width="214"/>
  <unicode hex="005A"/>
  <outline>
    <contour>
      <point x="-42" y="0" type="line"/>
      <point x="147" y="0" type="line"/>
      <point x="170" y="107" type="line"/>
      <point x="66" y="107" type="line"/>
      <point x="281" y="628" type="line"/>
      <point x="304" y="735" type="line"/>
      <point x="128" y="735" type="line"/>
      <point x="105" y="628" type="line"/>
      <point x="192" y="628" type="line"/>
      <point x="-17" y="116" type="line"/>
    </contour>
    <contour>
      <point x="107" y="735" type="move" name="top"/>
    </contour>
  </outline>
</glyph>
<glyph name="bracketleft" format="1">
  <advance width="188"/>
  <unicode hex="005B"/>
  <outline>
    <contour>
      <point x="272" y="735" type="line"/>
      <point x="137" y="735" type="line"/>
      <point x="-40" y="-104" type="line"/>
      <point x="94" y="-104" type="line"/>
      <point x="114" y="-8" type="line"/>
      <point x="55" y="-8" type="line"/>
      <point x="193" y="639" type="line"/>
      <point x="252" y="639" type="line"/>
    </contour>
  </outline>
</glyph>
<glyph name="backslash" format="1">
  <advance width="262"/>
  <unicode hex="005C"/>
  <outline>
    <contour>
      <point x="195" y="826" type="line"/>
      <point x="129" y="826" type="line"/>
      <point x="114" y="-88" type="line"/>
      <point x="181" y="-88" type="line"/>
    </contour>
  </outline>
</glyph>
<glyph name="bracketright" format="1">
  <advance width="188"/>
  <unicode hex="005D"/>
  <outline>
    <contour>
      <point x="110" y="639" type="line"/>
      <point x="169" y="639" type="line"/>
      <point x="31" y="-8" type="line"/>
      <point x="-27" y="-8" type="line"/>
      <point x="-47" y="-104" type="line"/>
      <point x="87" y="-104" type="line"/>
      <point x="265" y="735" type="line"/>
      <point x="130" y="735" type="line"/>
    </contour>
  </outline>
</glyph>
<glyph name="a" format="1">
  <advance width="230"/>
  <unicode hex="0061"/>
  <outline>
    <contour>
      <point x="161" y="363" type="line"/>
      <point x="155" y="352"/>
      <point x="136" y="335"/>
      <point x="120" y="324" type="curve" smooth="yes"/>
      <point x="54" y="276"/>
      <point x="19" y="203"/>
      <point x="2" y="127" type="curve"/>
      <point x="-4" y="93"/>
      <point x="-22" y="-8"/>
      <point x="31" y="-8" type="curve" smooth="yes"/>
      <point x="55" y="-8"/>
      <point x="78" y="12"/>
      <point x="91" y="33" type="curve"/>
      <point x="90" y="27"/>
      <point x="94" y="5"/>
      <point x="95" y="0" type="curve"/>
      <point x="162" y="0" type="line"/>
      <point x="165" y="24"/>
      <point x="167" y="46"/>
      <point x="178" y="95" type="curve" smooth="yes"/>
      <point x="249" y="431" type="line"/>
      <point x="262" y="482"/>
      <point x="252" y="555"/>
      <point x="191" y="555" type="curve" smooth="yes"/>
      <point x="125" y="555"/>
      <point x="83" y="480"/>
      <point x="70" y="419" type="curve" smooth="yes"/>
      <point x="63" y="386" type="line"/>
      <point x="139" y="386" type="line"/>
      <point x="146" y="422" type="line" smooth="yes"/>
      <point x="149" y="436"/>
      <point x="160" y="468"/>
      <point x="170" y="468" type="curve" smooth="yes"/>
      <point x="179" y="468"/>
      <point x="177" y="439"/>
      <point x="173" y="422" type="curve" smooth="yes"/>
    </contour>
    <contour>
      <point x="109" y="124" type="line" smooth="yes"/>
      <point x="105" y="105"/>
      <point x="93" y="87"/>
      <point x="80" y="87" type="curve" smooth="yes"/>
      <point x="66" y="87"/>
      <point x="74" y="125"/>
      <point x="75" y="128" type="curve"/>
      <point x="84" y="172"/>
      <point x="113" y="228"/>
      <point x="136" y="251" type="curve"/>
    </contour>
    <contour>
      <point x="207" y="10" type="move" name="ogonek"/>
    </contour>
    <contour>
      <point x="115" y="547" type="move" name="top"/>
    </contour>
  </outline>
</glyph>
<glyph name="b" format="1">
  <advance width="231"/>
  <unicode hex="0062"/>
  <outline>
    <contour>
      <point x="-23" y="0" type="line"/>
      <point x="55" y="0" type="line"/>
      <point x="61" y="30" type="line"/>
      <point x="64" y="18"/>
      <point x="84" y="-8"/>
      <point x="110" y="-8" type="curve" smooth="yes"/>
      <point x="159" y="-8"/>
      <point x="169" y="60"/>
      <point x="178" y="99" type="curve" smooth="yes"/>
      <point x="252" y="448" type="line" smooth="yes"/>
      <point x="262" y="493"/>
      <point x="265" y="555"/>
      <point x="214" y="555" type="curve" smooth="yes"/>
      <point x="200" y="555"/>
      <point x="172" y="537"/>
      <point x="166" y="524" type="curve"/>
      <point x="211" y="735" type="line"/>
      <point x="132" y="735" type="line"/>
    </contour>
    <contour>
      <point x="147" y="431" type="line" smooth="yes"/>
      <point x="150" y="447"/>
      <point x="158" y="467"/>
      <point x="168" y="467" type="curve" smooth="yes"/>
      <point x="177" y="467"/>
      <point x="179" y="450"/>
      <point x="175" y="431" type="curve" smooth="yes"/>
      <point x="109" y="125" type="line" smooth="yes"/>
      <point x="105" y="105"/>
      <point x="98" y="87"/>
      <point x="87" y="87" type="curve" smooth="yes"/>
      <point x="77" y="87"/>
      <point x="77" y="106"/>
      <point x="81" y="125" type="curve" smooth="yes"/>
    </contour>
  </outline>
</glyph>
<glyph name="c" format="1">
  <advance width="219"/>
  <unicode hex="0063"/>
  <outline>
    <contour>
      <point x="150" y="427" type="line" smooth="yes"/>
      <point x="154" y="447"/>
      <point x="166" y="467"/>
      <point x="175" y="467" type="curve" smooth="yes"/>
      <point x="184" y="467"/>
      <point x="188" y="460"/>
      <point x="181" y="427" type="curve" smooth="yes"/>
      <point x="166" y="355" type="line"/>
      <point x="242" y="355" type="line"/>
      <point x="253" y="408" type="line" smooth="yes"/>
      <point x="268" y="479"/>
      <point x="281" y="555"/>
      <point x="191" y="555" type="curve" smooth="yes"/>
      <point x="115" y="555"/>
      <point x="81" y="466"/>
      <point x="66" y="403" type="curve" smooth="yes"/>
      <point x="11" y="144" type="line" smooth="yes"/>
      <point x="0" y="87"/>
      <point x="-7" y="-8"/>
      <point x="70" y="-8" type="curve" smooth="yes"/>
      <point x="158" y="-8"/>
      <point x="179" y="62"/>
      <point x="196" y="139" type="curve" smooth="yes"/>
      <point x="209" y="202" type="line"/>
      <point x="133" y="202" type="line"/>
      <point x="117" y="126" type="line" smooth="yes"/>
      <point x="110" y="93"/>
      <point x="102" y="83"/>
      <point x="92" y="83" type="curve" smooth="yes"/>
      <point x="82" y="83"/>
      <point x="82" y="106"/>
      <point x="86" y="126" type="curve" smooth="yes"/>
    </contour>
    <contour>
      <point x="110" y="547" type="move" name="top"/>
    </contour>
    <contour>
      <point x="110" y="0" type="move" name="bottom"/>
    </contour>
  </outline>
</glyph>
<glyph name="j" format="1">
  <advance width="137"/>
  <unicode hex="006A"/>
  <outline>
    <contour>
      <point x="118" y="634" type="line"/>
      <point x="197" y="634" type="line"/>
      <point x="219" y="735" type="line"/>
      <point x="140" y="735" type="line"/>
    </contour>
    <contour>
      <point x="100" y="547" type="line"/>
      <point x="-23" y="-36" type="line" smooth="yes"/>
      <point x="-28" y="-59"/>
      <point x="-34" y="-101"/>
      <point x="-67" y="-89" type="curve"/>
      <point x="-89" y="-180" type="line"/>
      <point x="-75" y="-187"/>
      <point x="-66" y="-188"/>
      <point x="-55" y="-188" type="curve" smooth="yes"/>
      <point x="-17" y="-188"/>
      <point x="11" y="-157"/>
      <point x="28" y="-122" type="curve" smooth="yes"/>
      <point x="44" y="-86"/>
      <point x="54" y="-42"/>
      <point x="60" y="-14" type="curve" smooth="yes"/>
      <point x="179" y="547" type="line"/>
    </contour>
  </outline>
</glyph>
<glyph name="l" format="1">
  <advance width="137"/>
  <unicode hex="006C"/>
  <outline>
    <contour>
      <point x="54" y="0" type="line"/>
      <point x="211" y="735" type="line"/>
      <point x="132" y="735" type="line"/>
      <point x="-24" y="0" type="line"/>
    </contour>
  </outline>
</glyph>
<glyph name="p" format="1">
  <advance width="231"/>
  <unicode hex="0070"/>
  <outline>
    <contour>
      <point x="-44" y="-188" type="line"/>
      <point x="34" y="-188" type="line"/>
      <point x="81" y="32" type="line"/>
      <point x="86" y="10"/>
      <point x="106" y="-8"/>
      <point x="124" y="-8" type="curve" smooth="yes"/>
      <point x="173" y="-8"/>
      <point x="193" y="60"/>
      <point x="202" y="99" type="curve" smooth="yes"/>
      <point x="276" y="448" type="line" smooth="yes"/>
      <point x="284" y="483"/>
      <point x="295" y="555"/>
      <point x="244" y="555" type="curve" smooth="yes"/>
      <point x="226" y="555"/>
      <point x="196" y="537"/>
      <point x="184" y="519" type="curve"/>
      <point x="190" y="547" type="line"/>
      <point x="111" y="547" type="line"/>
    </contour>
    <contour>
      <point x="165" y="430" type="line" smooth="yes"/>
      <point x="169" y="449"/>
      <point x="177" y="467"/>
      <point x="188" y="467" type="curve" smooth="yes"/>
      <point x="199" y="467"/>
      <point x="198" y="449"/>
      <point x="194" y="430" type="curve" smooth="yes"/>
      <point x="129" y="120" type="line" smooth="yes"/>
      <point x="124" y="98"/>
      <point x="118" y="87"/>
      <point x="108" y="87" type="curve" smooth="yes"/>
      <point x="98" y="87"/>
      <point x="95" y="97"/>
      <point x="100" y="120" type="curve" smooth="yes"/>
    </contour>
  </outline>
</glyph>
<glyph name="r" format="1">
  <advance width="178"/>
  <unicode hex="0072"/>
  <outline>
    <contour>
      <point x="247" y="555" type="line"/>
      <point x="213" y="555"/>
      <point x="187" y="536"/>
      <point x="172" y="517" type="curve"/>
      <point x="178" y="547" type="line"/>
      <point x="101" y="547" type="line"/>
      <point x="-14" y="0" type="line"/>
      <point x="62" y="0" type="line"/>
      <point x="143" y="380" type="line" smooth="yes"/>
      <point x="152" y="423"/>
      <point x="180" y="462"/>
      <point x="222" y="435" type="curve"/>
    </contour>
    <contour>
      <point x="89" y="547" type="move" name="top"/>
    </contour>
    <contour>
      <point x="89" y="0" type="move" name="bottom"/>
    </contour>
  </outline>
</glyph>
<glyph name="t" format="1">
  <advance width="175"/>
  <unicode hex="0074"/>
  <outline>
    <contour>
      <point x="143" y="682" type="line"/>
      <point x="115" y="547" type="line"/>
      <point x="82" y="547" type="line"/>
      <point x="62" y="456" type="line"/>
      <point x="95" y="456" type="line"/>
      <point x="-1" y="0" type="line"/>
      <point x="75" y="0" type="line"/>
      <point x="172" y="456" type="line"/>
      <point x="214" y="456" type="line"/>
      <point x="234" y="547" type="line"/>
      <point x="192" y="547" type="line"/>
      <point x="220" y="682" type="line"/>
    </contour>
    <contour>
      <point x="88" y="274" type="move" name="center"/>
    </contour>
    <contour>
      <point x="88" y="0" type="move" name="bottom"/>
    </contour>
  </outline>
</glyph>
<glyph name="u" format="1">
  <advance width="232"/>
  <unicode hex="0075"/>
  <outline>
    <contour>
      <point x="114" y="116" type="line" smooth="yes"/>
      <point x="109" y="95"/>
      <point x="102" y="80"/>
      <point x="92" y="80" type="curve" smooth="yes"/>
      <point x="82" y="80"/>
      <point x="80" y="94"/>
      <point x="84" y="115" type="curve" smooth="yes"/>
      <point x="176" y="547" type="line"/>
      <point x="98" y="547" type="line"/>
      <point x="3" y="99" type="line" smooth="yes"/>
      <point x="-3" y="66"/>
      <point x="-15" y="-8"/>
      <point x="34" y="-8" type="curve" smooth="yes"/>
      <point x="51" y="-8"/>
      <point x="82" y="13"/>
      <point x="95" y="28" type="curve"/>
      <point x="89" y="0" type="line"/>
      <point x="168" y="0" type="line"/>
      <point x="284" y="547" type="line"/>
      <point x="205" y="547" type="line"/>
    </contour>
    <contour>
      <point x="209" y="10" type="move" name="ogonek"/>
    </contour>
    <contour>
      <point x="116" y="547" type="move" name="top"/>
    </contour>
  </outline>
</glyph>
<glyph name="v" format="1">
  <advance width="206"/>
  <unicode hex="0076"/>
  <outline>
    <contour>
      <point x="102" y="0" type="line"/>
      <point x="278" y="547" type="line"/>
      <point x="204" y="547" type="line"/>
      <point x="112" y="226" type="line"/>
      <point x="157" y="547" type="line"/>
      <point x="83" y="547" type="line"/>
      <point x="24" y="0" type="line"/>
    </contour>
  </outline>
</glyph>
<glyph name="w" format="1">
  <advance width="295"/>
  <unicode hex="0077"/>
  <outline>
    <contour>
      <point x="190" y="0" type="line"/>
      <point x="355" y="547" type="line"/>
      <point x="284" y="547" type="line"/>
      <point x="211" y="296" type="line"/>
      <point x="244" y="547" type="line"/>
      <point x="196" y="547" type="line"/>
      <point x="120" y="296" type="line"/>
      <point x="155" y="547" type="line"/>
      <point x="84" y="547" type="line"/>
      <point x="16" y="0" type="line"/>
      <point x="80" y="0" type="line"/>
      <point x="158" y="260" type="line"/>
      <point x="125" y="0" type="line"/>
    </contour>
    <contour>
      <point x="148" y="547" type="move" name="top"/>
    </contour>
  </outline>
</glyph>
<glyph name="y" format="1">
  <advance width="228"/>
  <unicode hex="0079"/>
  <outline>
    <contour>
      <point x="-48" y="-193" type="line"/>
      <point x="-13" y="-208"/>
      <point x="30" y="-190"/>
      <point x="62" y="-147" type="curve" smooth="yes"/>
      <point x="84" y="-119"/>
      <point x="102" y="-77"/>
      <point x="112" y="-41" type="curve"/>
      <point x="305" y="547" type="line"/>
      <point x="227" y="547" type="line"/>
      <point x="207" y="473"/>
      <point x="154" y="299"/>
      <point x="133" y="224" type="curve"/>
      <point x="172" y="547" type="line"/>
      <point x="95" y="547" type="line"/>
      <point x="42" y="-16" type="line"/>
      <point x="36" y="-41"/>
      <point x="27" y="-75"/>
      <point x="6" y="-99" type="curve" smooth="yes"/>
      <point x="-3" y="-109"/>
      <point x="-15" y="-110"/>
      <point x="-29" y="-104" type="curve"/>
    </contour>
    <contour>
      <point x="114" y="547" type="move" name="top"/>
    </contour>
  </outline>
</glyph>
<glyph name="braceleft" format="1">
  <advance width="232"/>
  <unicode hex="007B"/>
  <outline>
    <contour>
      <point x="324" y="743" type="line"/>
      <point x="198" y="746"/>
      <point x="166" y="684"/>
      <point x="138" y="563" type="curve" smooth="yes"/>
      <point x="97" y="369" type="line"/>
      <point x="96" y="362"/>
      <point x="91" y="345"/>
      <point x="82" y="330" type="curve"/>
      <point x="74" y="314"/>
      <point x="61" y="301"/>
      <point x="45" y="301" type="curve"/>
      <point x="28" y="221" type="line"/>
      <point x="44" y="220"/>
      <point x="51" y="206"/>
      <point x="52" y="191" type="curve"/>
      <point x="55" y="175"/>
      <point x="53" y="160"/>
      <point x="51" y="153" type="curve"/>
      <point x="10" y="-41" type="line" smooth="yes"/>
      <point x="-14" y="-157"/>
      <point x="-12" y="-221"/>
      <point x="119" y="-221" type="curve"/>
      <point x="137" y="-137" type="line"/>
      <point x="73" y="-137"/>
      <point x="75" y="-104"/>
      <point x="86" y="-41" type="curve"/>
      <point x="127" y="153" type="line" smooth="yes"/>
      <point x="137" y="200"/>
      <point x="125" y="242"/>
      <point x="100" y="261" type="curve"/>
      <point x="130" y="270"/>
      <point x="163" y="321"/>
      <point x="173" y="369" type="curve" smooth="yes"/>
      <point x="214" y="563" type="line" smooth="yes"/>
      <point x="226" y="618"/>
      <point x="238" y="657"/>
      <point x="306" y="659" type="curve"/>
    </contour>
  </outline>
</glyph>
<glyph name="braceright" format="1">
  <advance width="232"/>
  <unicode hex="007D"/>
  <outline>
    <contour>
      <point x="120" y="659" type="line"/>
      <point x="186" y="657"/>
      <point x="182" y="618"/>
      <point x="170" y="563" type="curve" smooth="yes"/>
      <point x="129" y="369" type="line" smooth="yes"/>
      <point x="119" y="321"/>
      <point x="130" y="270"/>
      <point x="156" y="261" type="curve"/>
      <point x="123" y="242"/>
      <point x="93" y="200"/>
      <point x="83" y="153" type="curve" smooth="yes"/>
      <point x="42" y="-41" type="line" smooth="yes"/>
      <point x="27" y="-104"/>
      <point x="15" y="-137"/>
      <point x="-48" y="-137" type="curve"/>
      <point x="-66" y="-221" type="line"/>
      <point x="65" y="-221"/>
      <point x="93" y="-157"/>
      <point x="118" y="-41" type="curve" smooth="yes"/>
      <point x="159" y="153" type="line"/>
      <point x="161" y="160"/>
      <point x="165" y="175"/>
      <point x="174" y="191" type="curve" smooth="yes"/>
      <point x="183" y="206"/>
      <point x="196" y="220"/>
      <point x="212" y="221" type="curve"/>
      <point x="229" y="301" type="line"/>
      <point x="213" y="301"/>
      <point x="206" y="314"/>
      <point x="204" y="330" type="curve"/>
      <point x="201" y="345"/>
      <point x="204" y="362"/>
      <point x="205" y="369" type="curve"/>
      <point x="246" y="563" type="line" smooth="yes"/>
      <point x="270" y="684"/>
      <point x="264" y="746"/>
      <point x="138" y="743" type="curve"/>
    </contour>
  </outline>
</glyph>
<glyph name="exclamdown" format="1">
  <advance width="143"/>
  <unicode hex="00A1"/>
  <outline>
    <contour>
      <point x="89" y="436" type="line"/>
      <point x="170" y="436" type="line"/>
      <point x="194" y="547" type="line"/>
      <point x="113" y="547" type="line"/>
    </contour>
    <contour>
      <point x="-45" y="-188" type="line"/>
      <point x="42" y="-188" type="line"/>
      <point x="140" y="349" type="line"/>
      <point x="84" y="349" type="line"/>
    </contour>
  </outline>
</glyph>
<glyph name="sterling" format="1">
  <advance width="269"/>
  <unicode hex="00A3"/>
  <outline>
    <contour>
      <point x="298" y="547" type="line"/>
      <point x="309" y="596"/>
      <point x="314" y="646"/>
      <point x="308" y="683" type="curve" smooth="yes"/>
      <point x="301" y="719"/>
      <point x="280" y="744"/>
      <point x="234" y="743" type="curve" smooth="yes"/>
      <point x="195" y="742"/>
      <point x="166" y="718"/>
      <point x="144" y="683" type="curve" smooth="yes"/>
      <point x="123" y="648"/>
      <point x="108" y="602"/>
      <point x="99" y="561" type="curve" smooth="yes"/>
      <point x="91" y="524"/>
      <point x="89" y="469"/>
      <point x="87" y="415" type="curve"/>
      <point x="87" y="404"/>
      <point x="87" y="394"/>
      <point x="88" y="384" type="curve"/>
      <point x="44" y="384" type="line"/>
      <point x="29" y="317" type="line"/>
      <point x="84" y="317" type="line"/>
      <point x="83" y="289"/>
      <point x="80" y="255"/>
      <point x="75" y="232" type="curve" smooth="yes"/>
      <point x="69" y="204"/>
      <point x="57" y="166"/>
      <point x="44" y="135" type="curve"/>
      <point x="36" y="131"/>
      <point x="21" y="122"/>
      <point x="13" y="113" type="curve" smooth="yes"/>
      <point x="-10" y="86"/>
      <point x="-26" y="62"/>
      <point x="-39" y="33" type="curve"/>
      <point x="7" y="-20" type="line"/>
      <point x="14" y="-4"/>
      <point x="20" y="8"/>
      <point x="26" y="17" type="curve"/>
      <point x="33" y="29"/>
      <point x="42" y="42"/>
      <point x="47" y="42" type="curve" smooth="yes"/>
      <point x="64" y="42"/>
      <point x="82" y="-8"/>
      <point x="116" y="-8" type="curve" smooth="yes"/>
      <point x="161" y="-8"/>
      <point x="208" y="55"/>
      <point x="239" y="177" type="curve"/>
      <point x="169" y="191" type="line"/>
      <point x="160" y="155"/>
      <point x="152" y="131"/>
      <point x="144" y="118" type="curve" smooth="yes"/>
      <point x="132" y="97" type="line"/>
      <point x="120" y="110"/>
      <point x="113" y="119"/>
      <point x="108" y="125" type="curve"/>
      <point x="129" y="164"/>
      <point x="144" y="205"/>
      <point x="149" y="232" type="curve"/>
      <point x="154" y="253"/>
      <point x="158" y="286"/>
      <point x="159" y="317" type="curve"/>
      <point x="210" y="317" type="line"/>
      <point x="225" y="384" type="line"/>
      <point x="164" y="384" type="line"/>
      <point x="166" y="460"/>
      <point x="168" y="515"/>
      <point x="178" y="561" type="curve"/>
      <point x="180" y="567"/>
      <point x="197" y="643"/>
      <point x="217" y="643" type="curve" smooth="yes"/>
      <point x="239" y="643"/>
      <point x="222" y="567"/>
      <point x="217" y="547" type="curve"/>
    </contour>
  </outline>
</glyph>
<glyph name="dieresis" format="1">
  <advance width="330"/>
  <unicode hex="00A8"/>
  <outline>
    <contour>
      <point x="123" y="637" type="line"/>
      <point x="197" y="637" type="line"/>
      <point x="218" y="735" type="line"/>
      <point x="144" y="735" type="line"/>
    </contour>
    <contour>
      <point x="227" y="637" type="line"/>
      <point x="301" y="637" type="line"/>
      <point x="322" y="735" type="line"/>
      <point x="248" y="735" type="line"/>
    </contour>
    <contour>
      <point x="222.5" y="547" type="move" name="_top"/>
    </contour>
  </outline>
</glyph>
<glyph name="registered" format="1">
  <advance width="512"/>
  <unicode hex="00AE"/>
  <outline>
    <contour>
      <point x="24" y="265"/>
      <point x="29" y="171"/>
      <point x="56" y="102" type="curve" smooth="yes"/>
      <point x="82" y="34"/>
      <point x="133" y="-8"/>
      <point x="200" y="-8" type="curve" smooth="yes"/>
      <point x="267" y="-8"/>
      <point x="335" y="34"/>
      <point x="390" y="102" type="curve" smooth="yes"/>
      <point x="447" y="171"/>
      <point x="492" y="265"/>
      <point x="514" y="367" type="curve" smooth="yes"/>
      <point x="535" y="470"/>
      <point x="530" y="564"/>
      <point x="503" y="633" type="curve" smooth="yes"/>
      <point x="476" y="701"/>
      <point x="426" y="743"/>
      <point x="359" y="743" type="curve" smooth="yes"/>
      <point x="292" y="743"/>
      <point x="223" y="701"/>
      <point x="169" y="633" type="curve" smooth="yes"/>
      <point x="112" y="564"/>
      <point x="67" y="470"/>
      <point x="46" y="367" type="curve" smooth="yes"/>
    </contour>
    <contour>
      <point x="116" y="455"/>
      <point x="154" y="535"/>
      <point x="201" y="592" type="curve" smooth="yes"/>
      <point x="249" y="650"/>
      <point x="299" y="685"/>
      <point x="347" y="685" type="curve" smooth="yes"/>
      <point x="394" y="685"/>
      <point x="432" y="650"/>
      <point x="454" y="592" type="curve" smooth="yes"/>
      <point x="475" y="535"/>
      <point x="479" y="455"/>
      <point x="461" y="367" type="curve" smooth="yes"/>
      <point x="442" y="279"/>
      <point x="404" y="201"/>
      <point x="359" y="144" type="curve" smooth="yes"/>
      <point x="312" y="86"/>
      <point x="259" y="50"/>
      <point x="212" y="50" type="curve" smooth="yes"/>
      <point x="164" y="50"/>
      <point x="129" y="86"/>
      <point x="106" y="144" type="curve" smooth="yes"/>
      <point x="83" y="201"/>
      <point x="79" y="279"/>
      <point x="98" y="367" type="curve" smooth="yes"/>
    </contour>
    <contour>
      <point x="258" y="582" type="line"/>
      <point x="167" y="153" type="line"/>
      <point x="228" y="153" type="line"/>
      <point x="263" y="318" type="line"/>
      <point x="253" y="153" type="line"/>
      <point x="316" y="153" type="line"/>
      <point x="326" y="348" type="line"/>
      <point x="325" y="348" type="line"/>
      <point x="358" y="385"/>
      <point x="366" y="415"/>
      <point x="374" y="456" type="curve" smooth="yes"/>
      <point x="391" y="535"/>
      <point x="379" y="582"/>
      <point x="325" y="582" type="curve" smooth="yes"/>
    </contour>
    <contour>
      <point x="310" y="519" type="line" smooth="yes"/>
      <point x="316" y="519"/>
      <point x="320" y="510"/>
      <point x="320" y="498" type="curve"/>
      <point x="322" y="486"/>
      <point x="319" y="470"/>
      <point x="316" y="455" type="curve" smooth="yes"/>
      <point x="313" y="440"/>
      <point x="309" y="425"/>
      <point x="302" y="413" type="curve"/>
      <point x="297" y="401"/>
      <point x="289" y="393"/>
      <point x="283" y="393" type="curve" smooth="yes"/>
      <point x="279" y="393" type="line"/>
      <point x="306" y="519" type="line"/>
    </contour>
  </outline>
</glyph>
<glyph name="Agrave" format="1">
  <advance width="254"/>
  <unicode hex="00C0"/>
  <outline>
    <contour>
      <point x="174" y="890" type="line"/>
      <point x="203" y="800" type="line"/>
      <point x="267" y="800" type="line"/>
      <point x="254" y="890" type="line"/>
    </contour>
    <contour>
      <point x="30" y="0" type="line"/>
      <point x="73" y="150" type="line"/>
      <point x="119" y="150" type="line"/>
      <point x="98" y="0" type="line"/>
      <point x="179" y="0" type="line"/>
      <point x="269" y="735" type="line"/>
      <point x="172" y="735" type="line"/>
      <point x="-50" y="0" type="line"/>
    </contour>
    <contour>
      <point x="136" y="264" type="line"/>
      <point x="105" y="264" type="line"/>
      <point x="182" y="556" type="line"/>
    </contour>
  </outline>
</glyph>
<glyph name="Acircumflex" format="1">
  <advance width="254"/>
  <unicode hex="00C2"/>
  <outline>
    <contour>
      <point x="214" y="890" type="line"/>
      <point x="153" y="800" type="line"/>
      <point x="218" y="800" type="line"/>
      <point x="244" y="839" type="line"/>
      <point x="252" y="800" type="line"/>
      <point x="317" y="800" type="line"/>
      <point x="295" y="890" type="line"/>
    </contour>
    <contour>
      <point x="30" y="0" type="line"/>
      <point x="73" y="150" type="line"/>
      <point x="119" y="150" type="line"/>
      <point x="98" y="0" type="line"/>
      <point x="179" y="0" type="line"/>
      <point x="269" y="735" type="line"/>
      <point x="172" y="735" type="line"/>
      <point x="-50" y="0" type="line"/>
    </contour>
    <contour>
      <point x="136" y="264" type="line"/>
      <point x="105" y="264" type="line"/>
      <point x="182" y="556" type="line"/>
    </contour>
  </outline>
</glyph>
<glyph name="Atilde" format="1">
  <advance width="254"/>
  <unicode hex="00C3"/>
  <outline>
    <contour>
      <point x="30" y="0" type="line"/>
      <point x="72" y="150" type="line"/>
      <point x="118" y="150" type="line"/>
      <point x="98" y="0" type="line"/>
      <point x="179" y="0" type="line"/>
      <point x="269" y="735" type="line"/>
      <point x="172" y="735" type="line"/>
      <point x="-50" y="0" type="line"/>
    </contour>
    <contour>
      <point x="136" y="264" type="line"/>
      <point x="105" y="264" type="line"/>
      <point x="182" y="556" type="line"/>
    </contour>
    <contour>
      <point x="164" y="783" type="line"/>
      <point x="170" y="790"/>
      <point x="198" y="813"/>
      <point x="210" y="813" type="curve" smooth="yes"/>
      <point x="230" y="813"/>
      <point x="237" y="794"/>
      <point x="260" y="794" type="curve" smooth="yes"/>
      <point x="278" y="794"/>
      <point x="295" y="806"/>
      <point x="306" y="819" type="curve"/>
      <point x="323" y="902" type="line"/>
      <point x="315" y="892"/>
      <point x="290" y="873"/>
      <point x="277" y="873" type="curve" smooth="yes"/>
      <point x="258" y="873"/>
      <point x="251" y="890"/>
      <point x="228" y="890" type="curve" smooth="yes"/>
      <point x="213" y="890"/>
      <point x="194" y="882"/>
      <point x="182" y="869" type="curve"/>
    </contour>
  </outline>
</glyph>
<glyph name="Adieresis" format="1">
  <advance width="254"/>
  <unicode hex="00C4"/>
  <outline>
    <contour>
      <point x="150" y="800" type="line"/>
      <point x="224" y="800" type="line"/>
      <point x="245" y="898" type="line"/>
      <point x="171" y="898" type="line"/>
    </contour>
    <contour>
      <point x="247" y="800" type="line"/>
      <point x="320" y="800" type="line"/>
      <point x="341" y="898" type="line"/>
      <point x="268" y="898" type="line"/>
    </contour>
    <contour>
      <point x="30" y="0" type="line"/>
      <point x="74" y="150" type="line"/>
      <point x="118" y="150" type="line"/>
      <point x="98" y="0" type="line"/>
      <point x="179" y="0" type="line"/>
      <point x="269" y="735" type="line"/>
      <point x="172" y="735" type="line"/>
      <point x="-50" y="0" type="line"/>
    </contour>
    <contour>
      <point x="135" y="264" type="line"/>
      <point x="106" y="264" type="line"/>
      <point x="176" y="526" type="line"/>
    </contour>
  </outline>
</glyph>
<glyph name="Aring" format="1">
  <advance width="254"/>
  <unicode hex="00C5"/>
  <outline>
    <contour>
      <point x="183" y="819"/>
      <point x="201" y="790"/>
      <point x="231" y="790" type="curve" smooth="yes"/>
      <point x="260" y="790"/>
      <point x="290" y="819"/>
      <point x="299" y="860" type="curve" smooth="yes"/>
      <point x="308" y="901"/>
      <point x="290" y="930"/>
      <point x="261" y="930" type="curve" smooth="yes"/>
      <point x="231" y="930"/>
      <point x="201" y="901"/>
      <point x="192" y="860" type="curve" smooth="yes"/>
    </contour>
    <contour>
      <point x="235" y="879"/>
      <point x="245" y="891"/>
      <point x="252" y="891" type="curve" smooth="yes"/>
      <point x="258" y="891"/>
      <point x="265" y="879"/>
      <point x="261" y="860" type="curve" smooth="yes"/>
      <point x="257" y="841"/>
      <point x="245" y="828"/>
      <point x="239" y="828" type="curve" smooth="yes"/>
      <point x="232" y="828"/>
      <point x="227" y="841"/>
      <point x="231" y="860" type="curve" smooth="yes"/>
    </contour>
    <contour>
      <point x="28" y="0" type="line"/>
      <point x="72" y="150" type="line"/>
      <point x="116" y="150" type="line"/>
      <point x="96" y="0" type="line"/>
      <point x="177" y="0" type="line"/>
      <point x="267" y="735" type="line"/>
      <point x="170" y="735" type="line"/>
      <point x="-52" y="0" type="line"/>
    </contour>
    <contour>
      <point x="133" y="264" type="line"/>
      <point x="104" y="264" type="line"/>
      <point x="174" y="526" type="line"/>
    </contour>
  </outline>
</glyph>
<glyph name="Igrave" format="1">
  <advance width="148"/>
  <unicode hex="00CC"/>
  <outline>
    <contour>
      <point x="131" y="890" type="line"/>
      <point x="160" y="800" type="line"/>
      <point x="223" y="800" type="line"/>
      <point x="211" y="890" type="line"/>
    </contour>
    <contour>
      <point x="-27" y="0" type="line"/>
      <point x="55" y="0" type="line"/>
      <point x="211" y="735" type="line"/>
      <point x="128" y="735" type="line"/>
    </contour>
  </outline>
</glyph>
<glyph name="Ntilde" format="1">
  <advance width="267"/>
  <unicode hex="00D1"/>
  <outline>
    <contour>
      <point x="104" y="0" type="line"/>
      <point x="174" y="0" type="line"/>
      <point x="330" y="735" type="line"/>
      <point x="253" y="735" type="line"/>
      <point x="179" y="388" type="line"/>
      <point x="193" y="735" type="line"/>
      <point x="123" y="735" type="line"/>
      <point x="-32" y="0" type="line"/>
      <point x="44" y="0" type="line"/>
      <point x="119" y="357" type="line"/>
    </contour>
    <contour>
      <point x="169" y="783" type="line"/>
      <point x="175" y="790"/>
      <point x="203" y="813"/>
      <point x="215" y="813" type="curve" smooth="yes"/>
      <point x="235" y="813"/>
      <point x="242" y="794"/>
      <point x="265" y="794" type="curve" smooth="yes"/>
      <point x="283" y="794"/>
      <point x="300" y="806"/>
      <point x="311" y="819" type="curve"/>
      <point x="328" y="902" type="line"/>
      <point x="320" y="892"/>
      <point x="295" y="873"/>
      <point x="282" y="873" type="curve" smooth="yes"/>
      <point x="263" y="873"/>
      <point x="256" y="890"/>
      <point x="233" y="890" type="curve" smooth="yes"/>
      <point x="218" y="890"/>
      <point x="199" y="882"/>
      <point x="187" y="869" type="curve"/>
    </contour>
  </outline>
</glyph>
<glyph name="Otilde" format="1">
  <advance width="242"/>
  <unicode hex="00D5"/>
  <outline>
    <contour>
      <point x="157" y="783" type="line"/>
      <point x="164" y="790"/>
      <point x="192" y="813"/>
      <point x="204" y="813" type="curve" smooth="yes"/>
      <point x="224" y="813"/>
      <point x="231" y="794"/>
      <point x="254" y="794" type="curve" smooth="yes"/>
      <point x="272" y="794"/>
      <point x="288" y="806"/>
      <point x="299" y="819" type="curve"/>
      <point x="317" y="902" type="line"/>
      <point x="309" y="892"/>
      <point x="284" y="873"/>
      <point x="271" y="873" type="curve" smooth="yes"/>
      <point x="252" y="873"/>
      <point x="244" y="890"/>
      <point x="221" y="890" type="curve" smooth="yes"/>
      <point x="206" y="890"/>
      <point x="187" y="882"/>
      <point x="176" y="869" type="curve"/>
    </contour>
    <contour>
      <point x="288" y="594" type="line" smooth="yes"/>
      <point x="301" y="654"/>
      <point x="300" y="743"/>
      <point x="220" y="743" type="curve" smooth="yes"/>
      <point x="145" y="743"/>
      <point x="103" y="670"/>
      <point x="87" y="594" type="curve" smooth="yes"/>
      <point x="-8" y="141" type="line" smooth="yes"/>
      <point x="-23" y="71"/>
      <point x="-17" y="-8"/>
      <point x="60" y="-8" type="curve" smooth="yes"/>
      <point x="136" y="-8"/>
      <point x="176" y="65"/>
      <point x="192" y="141" type="curve" smooth="yes"/>
    </contour>
    <contour>
      <point x="109" y="141" type="line" smooth="yes"/>
      <point x="104" y="118"/>
      <point x="94" y="97"/>
      <point x="84" y="97" type="curve" smooth="yes"/>
      <point x="75" y="97"/>
      <point x="70" y="114"/>
      <point x="76" y="141" type="curve" smooth="yes"/>
      <point x="172" y="594" type="line" smooth="yes"/>
      <point x="177" y="618"/>
      <point x="188" y="638"/>
      <point x="199" y="638" type="curve" smooth="yes"/>
      <point x="210" y="638"/>
      <point x="210" y="617"/>
      <point x="205" y="594" type="curve" smooth="yes"/>
    </contour>
  </outline>
</glyph>
<glyph name="Odieresis" format="1">
  <advance width="242"/>
  <unicode hex="00D6"/>
  <outline>
    <contour>
      <point x="288" y="594" type="line" smooth="yes"/>
      <point x="301" y="654"/>
      <point x="300" y="743"/>
      <point x="220" y="743" type="curve" smooth="yes"/>
      <point x="145" y="743"/>
      <point x="104" y="670"/>
      <point x="87" y="594" type="curve" smooth="yes"/>
      <point x="-8" y="141" type="line" smooth="yes"/>
      <point x="-23" y="71"/>
      <point x="-16" y="-8"/>
      <point x="61" y="-8" type="curve" smooth="yes"/>
      <point x="137" y="-8"/>
      <point x="176" y="65"/>
      <point x="192" y="141" type="curve" smooth="yes"/>
    </contour>
    <contour>
      <point x="109" y="141" type="line" smooth="yes"/>
      <point x="104" y="118"/>
      <point x="94" y="97"/>
      <point x="84" y="97" type="curve" smooth="yes"/>
      <point x="75" y="97"/>
      <point x="70" y="114"/>
      <point x="76" y="141" type="curve" smooth="yes"/>
      <point x="172" y="594" type="line"/>
      <point x="178" y="618"/>
      <point x="188" y="638"/>
      <point x="199" y="638" type="curve" smooth="yes"/>
      <point x="210" y="638"/>
      <point x="210" y="617"/>
      <point x="205" y="594" type="curve" smooth="yes"/>
    </contour>
    <contour>
      <point x="147" y="800" type="line"/>
      <point x="221" y="800" type="line"/>
      <point x="242" y="898" type="line"/>
      <point x="168" y="898" type="line"/>
    </contour>
    <contour>
      <point x="244" y="800" type="line"/>
      <point x="317" y="800" type="line"/>
      <point x="338" y="898" type="line"/>
      <point x="265" y="898" type="line"/>
    </contour>
  </outline>
</glyph>
<glyph name="Oslash" format="1">
  <advance width="242"/>
  <unicode hex="00D8"/>
  <outline>
    <contour>
      <point x="300" y="594" type="line" smooth="yes"/>
      <point x="305" y="621"/>
      <point x="309" y="654"/>
      <point x="302" y="682" type="curve"/>
      <point x="328" y="745" type="line"/>
      <point x="282" y="745" type="line"/>
      <point x="276" y="730" type="line"/>
      <point x="264" y="738"/>
      <point x="250" y="743"/>
      <point x="231" y="743" type="curve" smooth="yes"/>
      <point x="156" y="743"/>
      <point x="115" y="670"/>
      <point x="99" y="594" type="curve" smooth="yes"/>
      <point x="2" y="141" type="line"/>
      <point x="-3" y="111"/>
      <point x="-6" y="79"/>
      <point x="0" y="53" type="curve"/>
      <point x="-26" y="-10" type="line"/>
      <point x="21" y="-10" type="line"/>
      <point x="27" y="4" type="line"/>
      <point x="39" y="-3"/>
      <point x="53" y="-8"/>
      <point x="72" y="-8" type="curve" smooth="yes"/>
      <point x="148" y="-8"/>
      <point x="187" y="65"/>
      <point x="203" y="141" type="curve" smooth="yes"/>
    </contour>
    <contour>
      <point x="86" y="97"/>
      <point x="82" y="114"/>
      <point x="87" y="141" type="curve"/>
      <point x="93" y="165" type="line"/>
      <point x="162" y="336" type="line"/>
      <point x="120" y="141" type="line"/>
      <point x="116" y="118"/>
      <point x="105" y="97"/>
      <point x="95" y="97" type="curve" smooth="yes"/>
    </contour>
    <contour>
      <point x="213" y="576" type="line"/>
      <point x="144" y="408" type="line"/>
      <point x="184" y="594" type="line" smooth="yes"/>
      <point x="189" y="618"/>
      <point x="199" y="638"/>
      <point x="210" y="638" type="curve" smooth="yes"/>
      <point x="221" y="638"/>
      <point x="222" y="617"/>
      <point x="217" y="594" type="curve" smooth="yes"/>
    </contour>
    <contour>
      <point x="121" y="735" type="move" name="top"/>
    </contour>
  </outline>
</glyph>
<glyph name="Ucircumflex" format="1">
  <advance width="250"/>
  <unicode hex="00DB"/>
  <outline>
    <contour>
      <point x="231" y="735" type="line"/>
      <point x="105" y="141" type="line" smooth="yes"/>
      <point x="100" y="117"/>
      <point x="92" y="97"/>
      <point x="80" y="97" type="curve" smooth="yes"/>
      <point x="67" y="97"/>
      <point x="68" y="113"/>
      <point x="74" y="141" type="curve" smooth="yes"/>
      <point x="200" y="735" type="line"/>
      <point x="117" y="735" type="line"/>
      <point x="-8" y="141" type="line" smooth="yes"/>
      <point x="-24" y="66"/>
      <point x="-21" y="-8"/>
      <point x="58" y="-8" type="curve" smooth="yes"/>
      <point x="133" y="-8"/>
      <point x="170" y="58"/>
      <point x="188" y="141" type="curve" smooth="yes"/>
      <point x="314" y="735" type="line"/>
    </contour>
    <contour>
      <point x="206" y="890" type="line"/>
      <point x="145" y="800" type="line"/>
      <point x="210" y="800" type="line"/>
      <point x="235" y="839" type="line"/>
      <point x="244" y="800" type="line"/>
      <point x="309" y="800" type="line"/>
      <point x="287" y="890" type="line"/>
    </contour>
  </outline>
</glyph>
<glyph name="Udieresis" format="1">
  <advance width="250"/>
  <unicode hex="00DC"/>
  <outline>
    <contour>
      <point x="230" y="735" type="line"/>
      <point x="104" y="141" type="line" smooth="yes"/>
      <point x="99" y="117"/>
      <point x="92" y="97"/>
      <point x="80" y="97" type="curve" smooth="yes"/>
      <point x="67" y="97"/>
      <point x="67" y="113"/>
      <point x="73" y="141" type="curve" smooth="yes"/>
      <point x="199" y="735" type="line"/>
      <point x="116" y="735" type="line"/>
      <point x="-9" y="141" type="line" smooth="yes"/>
      <point x="-25" y="66"/>
      <point x="-21" y="-8"/>
      <point x="58" y="-8" type="curve" smooth="yes"/>
      <point x="133" y="-8"/>
      <point x="170" y="58"/>
      <point x="187" y="141" type="curve" smooth="yes"/>
      <point x="313" y="735" type="line"/>
    </contour>
    <contour>
      <point x="143" y="800" type="line"/>
      <point x="217" y="800" type="line"/>
      <point x="238" y="898" type="line"/>
      <point x="164" y="898" type="line"/>
    </contour>
    <contour>
      <point x="240" y="800" type="line"/>
      <point x="313" y="800" type="line"/>
      <point x="334" y="898" type="line"/>
      <point x="261" y="898" type="line"/>
    </contour>
  </outline>
</glyph>
<glyph name="Yacute" format="1">
  <advance width="236"/>
  <unicode hex="00DD"/>
  <outline>
    <contour>
      <point x="238" y="890" type="line"/>
      <point x="187" y="800" type="line"/>
      <point x="251" y="800" type="line"/>
      <point x="318" y="890" type="line"/>
    </contour>
    <contour>
      <point x="188" y="735" type="line"/>
      <point x="106" y="735" type="line"/>
      <point x="86" y="313" type="line"/>
      <point x="19" y="0" type="line"/>
      <point x="102" y="0" type="line"/>
      <point x="169" y="313" type="line"/>
      <point x="327" y="735" type="line"/>
      <point x="245" y="735" type="line"/>
      <point x="221" y="663"/>
      <point x="195" y="592"/>
      <point x="171" y="521" type="curve"/>
    </contour>
  </outline>
</glyph>
<glyph name="adieresis" format="1">
  <advance width="230"/>
  <unicode hex="00E4"/>
  <outline>
    <contour>
      <point x="151" y="363" type="line"/>
      <point x="146" y="352"/>
      <point x="126" y="335"/>
      <point x="111" y="324" type="curve" smooth="yes"/>
      <point x="45" y="276"/>
      <point x="9" y="203"/>
      <point x="-6" y="127" type="curve" smooth="yes"/>
      <point x="-13" y="93"/>
      <point x="-32" y="-8"/>
      <point x="21" y="-8" type="curve" smooth="yes"/>
      <point x="45" y="-8"/>
      <point x="68" y="12"/>
      <point x="81" y="33" type="curve"/>
      <point x="81" y="27"/>
      <point x="84" y="5"/>
      <point x="86" y="0" type="curve"/>
      <point x="153" y="0" type="line"/>
      <point x="155" y="24"/>
      <point x="158" y="46"/>
      <point x="168" y="95" type="curve" smooth="yes"/>
      <point x="240" y="431" type="line" smooth="yes"/>
      <point x="252" y="482"/>
      <point x="243" y="555"/>
      <point x="182" y="555" type="curve" smooth="yes"/>
      <point x="116" y="555"/>
      <point x="73" y="480"/>
      <point x="60" y="419" type="curve" smooth="yes"/>
      <point x="53" y="386" type="line"/>
      <point x="129" y="386" type="line"/>
      <point x="137" y="422" type="line" smooth="yes"/>
      <point x="140" y="436"/>
      <point x="150" y="468"/>
      <point x="160" y="468" type="curve" smooth="yes"/>
      <point x="169" y="468"/>
      <point x="167" y="439"/>
      <point x="164" y="422" type="curve"/>
    </contour>
    <contour>
      <point x="99" y="124" type="line" smooth="yes"/>
      <point x="95" y="105"/>
      <point x="83" y="87"/>
      <point x="70" y="87" type="curve" smooth="yes"/>
      <point x="56" y="87"/>
      <point x="64" y="125"/>
      <point x="65" y="128" type="curve"/>
      <point x="74" y="172"/>
      <point x="103" y="228"/>
      <point x="126" y="251" type="curve"/>
    </contour>
    <contour>
      <point x="113" y="637" type="line"/>
      <point x="187" y="637" type="line"/>
      <point x="208" y="735" type="line"/>
      <point x="134" y="735" type="line"/>
    </contour>
    <contour>
      <point x="210" y="637" type="line"/>
      <point x="283" y="637" type="line"/>
      <point x="304" y="735" type="line"/>
      <point x="231" y="735" type="line"/>
    </contour>
  </outline>
</glyph>
<glyph name="ae" format="1">
  <advance width="333"/>
  <unicode hex="00E6"/>
  <outline>
    <contour>
      <point x="240" y="196" type="line"/>
      <point x="227" y="136" type="line" smooth="yes"/>
      <point x="223" y="117"/>
      <point x="213" y="81"/>
      <point x="197" y="81" type="curve" smooth="yes"/>
      <point x="186" y="81"/>
      <point x="189" y="114"/>
      <point x="193" y="136" type="curve"/>
      <point x="219" y="255" type="line"/>
      <point x="328" y="255" type="line"/>
      <point x="362" y="418" type="line" smooth="yes"/>
      <point x="376" y="481"/>
      <point x="381" y="555"/>
      <point x="297" y="555" type="curve" smooth="yes"/>
      <point x="274" y="555"/>
      <point x="256" y="546"/>
      <point x="239" y="533" type="curve"/>
      <point x="229" y="546"/>
      <point x="214" y="555"/>
      <point x="193" y="555" type="curve" smooth="yes"/>
      <point x="127" y="555"/>
      <point x="85" y="480"/>
      <point x="72" y="419" type="curve" smooth="yes"/>
      <point x="65" y="386" type="line"/>
      <point x="141" y="386" type="line"/>
      <point x="148" y="422" type="line" smooth="yes"/>
      <point x="151" y="436"/>
      <point x="162" y="468"/>
      <point x="172" y="468" type="curve" smooth="yes"/>
      <point x="181" y="468"/>
      <point x="179" y="439"/>
      <point x="175" y="422" type="curve" smooth="yes"/>
      <point x="163" y="363" type="line"/>
      <point x="157" y="352"/>
      <point x="138" y="335"/>
      <point x="122" y="324" type="curve" smooth="yes"/>
      <point x="56" y="276"/>
      <point x="21" y="203"/>
      <point x="4" y="127" type="curve"/>
      <point x="-2" y="93"/>
      <point x="-14" y="-8"/>
      <point x="51" y="-8" type="curve" smooth="yes"/>
      <point x="75" y="-8"/>
      <point x="103" y="2"/>
      <point x="120" y="19" type="curve"/>
      <point x="129" y="2"/>
      <point x="146" y="-8"/>
      <point x="173" y="-8" type="curve" smooth="yes"/>
      <point x="250" y="-8"/>
      <point x="285" y="56"/>
      <point x="300" y="127" type="curve" smooth="yes"/>
      <point x="315" y="196" type="line"/>
    </contour>
    <contour>
      <point x="252" y="411" type="line" smooth="yes"/>
      <point x="255" y="427"/>
      <point x="265" y="467"/>
      <point x="278" y="467" type="curve" smooth="yes"/>
      <point x="295" y="467"/>
      <point x="292" y="438"/>
      <point x="286" y="411" type="curve" smooth="yes"/>
      <point x="269" y="334" type="line"/>
      <point x="235" y="334" type="line"/>
    </contour>
    <contour>
      <point x="111" y="124" type="line" smooth="yes"/>
      <point x="107" y="105"/>
      <point x="95" y="87"/>
      <point x="82" y="87" type="curve" smooth="yes"/>
      <point x="68" y="87"/>
      <point x="76" y="125"/>
      <point x="77" y="128" type="curve"/>
      <point x="86" y="172"/>
      <point x="115" y="228"/>
      <point x="138" y="251" type="curve"/>
    </contour>
    <contour>
      <point x="167" y="547" type="move" name="top"/>
    </contour>
  </outline>
</glyph>
<glyph name="ecircumflex" format="1">
  <advance width="223"/>
  <unicode hex="00EA"/>
  <outline>
    <contour>
      <point x="124" y="196" type="line"/>
      <point x="111" y="136" type="line" smooth="yes"/>
      <point x="107" y="117"/>
      <point x="97" y="81"/>
      <point x="81" y="81" type="curve" smooth="yes"/>
      <point x="70" y="81"/>
      <point x="73" y="114"/>
      <point x="77" y="136" type="curve"/>
      <point x="103" y="255" type="line"/>
      <point x="212" y="255" type="line"/>
      <point x="246" y="418" type="line" smooth="yes"/>
      <point x="260" y="481"/>
      <point x="265" y="555"/>
      <point x="181" y="555" type="curve" smooth="yes"/>
      <point x="114" y="555"/>
      <point x="73" y="480"/>
      <point x="60" y="415" type="curve" smooth="yes"/>
      <point x="0" y="130" type="line" smooth="yes"/>
      <point x="-13" y="67"/>
      <point x="-12" y="-8"/>
      <point x="57" y="-8" type="curve" smooth="yes"/>
      <point x="134" y="-8"/>
      <point x="169" y="56"/>
      <point x="184" y="127" type="curve" smooth="yes"/>
      <point x="199" y="196" type="line"/>
    </contour>
    <contour>
      <point x="136" y="411" type="line" smooth="yes"/>
      <point x="139" y="427"/>
      <point x="149" y="467"/>
      <point x="162" y="467" type="curve" smooth="yes"/>
      <point x="179" y="467"/>
      <point x="175" y="438"/>
      <point x="170" y="411" type="curve" smooth="yes"/>
      <point x="153" y="334" type="line"/>
      <point x="119" y="334" type="line"/>
    </contour>
    <contour>
      <point x="178" y="727" type="line"/>
      <point x="117" y="637" type="line"/>
      <point x="182" y="637" type="line"/>
      <point x="207" y="676" type="line"/>
      <point x="216" y="637" type="line"/>
      <point x="281" y="637" type="line"/>
      <point x="259" y="727" type="line"/>
    </contour>
  </outline>
</glyph>
<glyph name="edieresis" format="1">
  <advance width="223"/>
  <unicode hex="00EB"/>
  <outline>
    <contour>
      <point x="124" y="196" type="line"/>
      <point x="111" y="136" type="line" smooth="yes"/>
      <point x="107" y="117"/>
      <point x="96" y="81"/>
      <point x="80" y="81" type="curve" smooth="yes"/>
      <point x="69" y="81"/>
      <point x="72" y="114"/>
      <point x="77" y="136" type="curve" smooth="yes"/>
      <point x="102" y="255" type="line"/>
      <point x="211" y="255" type="line"/>
      <point x="246" y="418" type="line" smooth="yes"/>
      <point x="259" y="481"/>
      <point x="265" y="555"/>
      <point x="181" y="555" type="curve" smooth="yes"/>
      <point x="114" y="555"/>
      <point x="73" y="480"/>
      <point x="59" y="415" type="curve" smooth="yes"/>
      <point x="0" y="130" type="line" smooth="yes"/>
      <point x="-14" y="67"/>
      <point x="-13" y="-8"/>
      <point x="56" y="-8" type="curve" smooth="yes"/>
      <point x="133" y="-8"/>
      <point x="169" y="56"/>
      <point x="184" y="127" type="curve" smooth="yes"/>
      <point x="199" y="196" type="line"/>
    </contour>
    <contour>
      <point x="135" y="411" type="line"/>
      <point x="139" y="427"/>
      <point x="148" y="467"/>
      <point x="161" y="467" type="curve" smooth="yes"/>
      <point x="178" y="467"/>
      <point x="175" y="438"/>
      <point x="169" y="411" type="curve" smooth="yes"/>
      <point x="153" y="334" type="line"/>
      <point x="119" y="334" type="line"/>
    </contour>
    <contour>
      <point x="114" y="637" type="line"/>
      <point x="188" y="637" type="line"/>
      <point x="209" y="735" type="line"/>
      <point x="135" y="735" type="line"/>
    </contour>
    <contour>
      <point x="211" y="637" type="line"/>
      <point x="284" y="637" type="line"/>
      <point x="305" y="735" type="line"/>
      <point x="232" y="735" type="line"/>
    </contour>
  </outline>
</glyph>
<glyph name="iacute" format="1">
  <advance width="139"/>
  <unicode hex="00ED"/>
  <outline>
    <contour>
      <point x="161" y="727" type="line"/>
      <point x="111" y="637" type="line"/>
      <point x="175" y="637" type="line"/>
      <point x="241" y="727" type="line"/>
    </contour>
    <contour>
      <point x="55" y="0" type="line"/>
      <point x="171" y="547" type="line"/>
      <point x="92" y="547" type="line"/>
      <point x="-23" y="0" type="line"/>
    </contour>
  </outline>
</glyph>
<glyph name="icircumflex" format="1">
  <advance width="139"/>
  <unicode hex="00EE"/>
  <outline>
    <contour>
      <point x="55" y="0" type="line"/>
      <point x="171" y="547" type="line"/>
      <point x="92" y="547" type="line"/>
      <point x="-23" y="0" type="line"/>
    </contour>
    <contour>
      <point x="130" y="727" type="line"/>
      <point x="69" y="637" type="line"/>
      <point x="134" y="637" type="line"/>
      <point x="160" y="676" type="line"/>
      <point x="168" y="637" type="line"/>
      <point x="233" y="637" type="line"/>
      <point x="211" y="727" type="line"/>
    </contour>
  </outline>
</glyph>
<glyph name="ocircumflex" format="1">
  <advance width="223"/>
  <unicode hex="00F4"/>
  <outline>
    <contour>
      <point x="244" y="414" type="line" smooth="yes"/>
      <point x="261" y="491"/>
      <point x="263" y="555"/>
      <point x="183" y="555" type="curve" smooth="yes"/>
      <point x="109" y="555"/>
      <point x="75" y="487"/>
      <point x="59" y="411" type="curve" smooth="yes"/>
      <point x="0" y="136" type="line" smooth="yes"/>
      <point x="-13" y="68"/>
      <point x="-16" y="-8"/>
      <point x="62" y="-8" type="curve" smooth="yes"/>
      <point x="134" y="-8"/>
      <point x="167" y="49"/>
      <point x="185" y="133" type="curve" smooth="yes"/>
    </contour>
    <contour>
      <point x="108" y="126" type="line"/>
      <point x="107" y="117"/>
      <point x="97" y="81"/>
      <point x="81" y="81" type="curve" smooth="yes"/>
      <point x="67" y="81"/>
      <point x="67" y="104"/>
      <point x="73" y="126" type="curve"/>
      <point x="136" y="421" type="line" smooth="yes"/>
      <point x="142" y="448"/>
      <point x="150" y="467"/>
      <point x="164" y="467" type="curve" smooth="yes"/>
      <point x="180" y="467"/>
      <point x="177" y="446"/>
      <point x="171" y="421" type="curve" smooth="yes"/>
    </contour>
    <contour>
      <point x="178" y="727" type="line"/>
      <point x="117" y="637" type="line"/>
      <point x="182" y="637" type="line"/>
      <point x="207" y="676" type="line"/>
      <point x="216" y="637" type="line"/>
      <point x="281" y="637" type="line"/>
      <point x="259" y="727" type="line"/>
    </contour>
  </outline>
</glyph>
<glyph name="oslash" format="1">
  <advance width="229"/>
  <unicode hex="00F8"/>
  <outline>
    <contour>
      <point x="228" y="550" type="line"/>
      <point x="219" y="553"/>
      <point x="208" y="555"/>
      <point x="195" y="555" type="curve" smooth="yes"/>
      <point x="121" y="555"/>
      <point x="87" y="487"/>
      <point x="71" y="411" type="curve" smooth="yes"/>
      <point x="12" y="136" type="line" smooth="yes"/>
      <point x="4" y="96"/>
      <point x="0" y="54"/>
      <point x="12" y="26" type="curve"/>
      <point x="-12" y="-37" type="line"/>
      <point x="32" y="-37" type="line"/>
      <point x="45" y="-3" type="line"/>
      <point x="53" y="-6"/>
      <point x="63" y="-8"/>
      <point x="74" y="-8" type="curve" smooth="yes"/>
      <point x="146" y="-8"/>
      <point x="179" y="49"/>
      <point x="197" y="133" type="curve" smooth="yes"/>
      <point x="256" y="414" type="line" smooth="yes"/>
      <point x="265" y="456"/>
      <point x="271" y="495"/>
      <point x="259" y="521" type="curve"/>
      <point x="286" y="584" type="line"/>
      <point x="243" y="584" type="line"/>
    </contour>
    <contour>
      <point x="185" y="467"/>
      <point x="187" y="461"/>
      <point x="187" y="451" type="curve"/>
      <point x="119" y="283" type="line"/>
      <point x="148" y="421" type="line" smooth="yes"/>
      <point x="154" y="448"/>
      <point x="162" y="467"/>
      <point x="176" y="467" type="curve" smooth="yes"/>
    </contour>
    <contour>
      <point x="88" y="81"/>
      <point x="84" y="84"/>
      <point x="82" y="88" type="curve"/>
      <point x="144" y="238" type="line"/>
      <point x="120" y="126" type="line"/>
      <point x="119" y="117"/>
      <point x="109" y="81"/>
      <point x="93" y="81" type="curve" smooth="yes"/>
    </contour>
    <contour>
      <point x="115" y="547" type="move" name="top"/>
    </contour>
  </outline>
</glyph>
<glyph name="thorn" format="1">
  <advance width="231"/>
  <unicode hex="00FE"/>
  <outline>
    <contour>
      <point x="-54" y="-188" type="line"/>
      <point x="24" y="-188" type="line"/>
      <point x="70" y="30" type="line"/>
      <point x="72" y="18"/>
      <point x="93" y="-8"/>
      <point x="119" y="-8" type="curve" smooth="yes"/>
      <point x="168" y="-8"/>
      <point x="177" y="60"/>
      <point x="187" y="99" type="curve"/>
      <point x="261" y="448" type="line" smooth="yes"/>
      <point x="270" y="493"/>
      <point x="273" y="555"/>
      <point x="222" y="555" type="curve" smooth="yes"/>
      <point x="208" y="555"/>
      <point x="181" y="537"/>
      <point x="175" y="524" type="curve"/>
      <point x="220" y="735" type="line"/>
      <point x="141" y="735" type="line"/>
    </contour>
    <contour>
      <point x="155" y="431" type="line" smooth="yes"/>
      <point x="158" y="447"/>
      <point x="167" y="467"/>
      <point x="177" y="467" type="curve" smooth="yes"/>
      <point x="186" y="467"/>
      <point x="187" y="450"/>
      <point x="183" y="431" type="curve" smooth="yes"/>
      <point x="118" y="125" type="line" smooth="yes"/>
      <point x="114" y="105"/>
      <point x="107" y="87"/>
      <point x="96" y="87" type="curve" smooth="yes"/>
      <point x="86" y="87"/>
      <point x="86" y="106"/>
      <point x="90" y="125" type="curve" smooth="yes"/>
    </contour>
  </outline>
</glyph>
<glyph name="abreve" format="1">
  <advance width="230"/>
  <unicode hex="0103"/>
  <outline>
    <contour>
      <point x="151" y="363" type="line"/>
      <point x="145" y="352"/>
      <point x="126" y="335"/>
      <point x="110" y="324" type="curve" smooth="yes"/>
      <point x="44" y="276"/>
      <point x="9" y="203"/>
      <point x="-6" y="127" type="curve"/>
      <point x="-14" y="93"/>
      <point x="-32" y="-8"/>
      <point x="21" y="-8" type="curve" smooth="yes"/>
      <point x="45" y="-8"/>
      <point x="68" y="12"/>
      <point x="81" y="33" type="curve"/>
      <point x="80" y="27"/>
      <point x="84" y="5"/>
      <point x="86" y="0" type="curve"/>
      <point x="153" y="0" type="line"/>
      <point x="155" y="24"/>
      <point x="157" y="46"/>
      <point x="168" y="95" type="curve" smooth="yes"/>
      <point x="239" y="431" type="line"/>
      <point x="252" y="482"/>
      <point x="243" y="555"/>
      <point x="182" y="555" type="curve" smooth="yes"/>
      <point x="116" y="555"/>
      <point x="73" y="480"/>
      <point x="60" y="419" type="curve" smooth="yes"/>
      <point x="53" y="386" type="line"/>
      <point x="129" y="386" type="line"/>
      <point x="136" y="422" type="line" smooth="yes"/>
      <point x="139" y="436"/>
      <point x="150" y="468"/>
      <point x="160" y="468" type="curve" smooth="yes"/>
      <point x="169" y="468"/>
      <point x="167" y="439"/>
      <point x="163" y="422" type="curve" smooth="yes"/>
    </contour>
    <contour>
      <point x="99" y="124" type="line" smooth="yes"/>
      <point x="95" y="105"/>
      <point x="83" y="87"/>
      <point x="70" y="87" type="curve" smooth="yes"/>
      <point x="56" y="87"/>
      <point x="64" y="125"/>
      <point x="65" y="128" type="curve"/>
      <point x="74" y="172"/>
      <point x="103" y="228"/>
      <point x="126" y="251" type="curve"/>
    </contour>
    <contour>
      <point x="255" y="739" type="line"/>
      <point x="255" y="739"/>
      <point x="229" y="708"/>
      <point x="213" y="708" type="curve" smooth="yes"/>
      <point x="195" y="708"/>
      <point x="187" y="740"/>
      <point x="187" y="740" type="curve"/>
      <point x="134" y="683" type="line"/>
      <point x="141" y="657"/>
      <point x="167" y="635"/>
      <point x="198" y="635" type="curve" smooth="yes"/>
      <point x="229" y="635"/>
      <point x="258" y="655"/>
      <point x="282" y="683" type="curve"/>
    </contour>
  </outline>
</glyph>
<glyph name="Ccircumflex" format="1">
  <advance width="238"/>
  <unicode hex="0108"/>
  <outline>
    <contour>
      <point x="131" y="252" type="line"/>
      <point x="108" y="141" type="line" smooth="yes"/>
      <point x="105" y="127"/>
      <point x="97" y="97"/>
      <point x="81" y="97" type="curve" smooth="yes"/>
      <point x="69" y="97"/>
      <point x="74" y="127"/>
      <point x="77" y="141" type="curve" smooth="yes"/>
      <point x="174" y="598" type="line" smooth="yes"/>
      <point x="177" y="614"/>
      <point x="183" y="638"/>
      <point x="196" y="638" type="curve" smooth="yes"/>
      <point x="212" y="638"/>
      <point x="207" y="607"/>
      <point x="204" y="594" type="curve" smooth="yes"/>
      <point x="180" y="483" type="line"/>
      <point x="261" y="483" type="line"/>
      <point x="285" y="594" type="line" smooth="yes"/>
      <point x="296" y="646"/>
      <point x="298" y="743"/>
      <point x="218" y="743" type="curve" smooth="yes"/>
      <point x="143" y="743"/>
      <point x="102" y="659"/>
      <point x="88" y="594" type="curve" smooth="yes"/>
      <point x="-7" y="141" type="line" smooth="yes"/>
      <point x="-21" y="76"/>
      <point x="-19" y="-8"/>
      <point x="58" y="-8" type="curve" smooth="yes"/>
      <point x="134" y="-8"/>
      <point x="172" y="64"/>
      <point x="189" y="141" type="curve" smooth="yes"/>
      <point x="212" y="252" type="line"/>
    </contour>
    <contour>
      <point x="206" y="890" type="line"/>
      <point x="145" y="800" type="line"/>
      <point x="210" y="800" type="line"/>
      <point x="235" y="839" type="line"/>
      <point x="244" y="800" type="line"/>
      <point x="309" y="800" type="line"/>
      <point x="287" y="890" type="line"/>
    </contour>
  </outline>
</glyph>
<glyph name="Cdotaccent" format="1">
  <advance width="238"/>
  <unicode hex="010A"/>
  <outline>
    <contour>
      <point x="191" y="822" type="line"/>
      <point x="270" y="822" type="line"/>
      <point x="291" y="923" type="line"/>
      <point x="212" y="923" type="line"/>
    </contour>
    <contour>
      <point x="129" y="252" type="line"/>
      <point x="106" y="141" type="line" smooth="yes"/>
      <point x="103" y="127"/>
      <point x="96" y="97"/>
      <point x="80" y="97" type="curve" smooth="yes"/>
      <point x="68" y="97"/>
      <point x="72" y="127"/>
      <point x="75" y="141" type="curve" smooth="yes"/>
      <point x="172" y="598" type="line" smooth="yes"/>
      <point x="175" y="614"/>
      <point x="182" y="638"/>
      <point x="195" y="638" type="curve" smooth="yes"/>
      <point x="211" y="638"/>
      <point x="205" y="607"/>
      <point x="202" y="594" type="curve" smooth="yes"/>
      <point x="179" y="483" type="line"/>
      <point x="260" y="483" type="line"/>
      <point x="283" y="594" type="line" smooth="yes"/>
      <point x="294" y="646"/>
      <point x="296" y="743"/>
      <point x="216" y="743" type="curve" smooth="yes"/>
      <point x="141" y="743"/>
      <point x="100" y="659"/>
      <point x="86" y="594" type="curve" smooth="yes"/>
      <point x="-9" y="141" type="line" smooth="yes"/>
      <point x="-23" y="76"/>
      <point x="-21" y="-8"/>
      <point x="56" y="-8" type="curve" smooth="yes"/>
      <point x="132" y="-8"/>
      <point x="171" y="64"/>
      <point x="187" y="141" type="curve" smooth="yes"/>
      <point x="210" y="252" type="line"/>
    </contour>
  </outline>
</glyph>
<glyph name="Ccaron" format="1">
  <advance width="238"/>
  <unicode hex="010C"/>
  <outline>
    <contour>
      <point x="130" y="252" type="line"/>
      <point x="106" y="141" type="line" smooth="yes"/>
      <point x="103" y="127"/>
      <point x="96" y="97"/>
      <point x="80" y="97" type="curve" smooth="yes"/>
      <point x="68" y="97"/>
      <point x="72" y="127"/>
      <point x="75" y="141" type="curve" smooth="yes"/>
      <point x="172" y="598" type="line"/>
      <point x="176" y="614"/>
      <point x="182" y="638"/>
      <point x="195" y="638" type="curve" smooth="yes"/>
      <point x="211" y="638"/>
      <point x="205" y="607"/>
      <point x="203" y="594" type="curve"/>
      <point x="179" y="483" type="line"/>
      <point x="260" y="483" type="line"/>
      <point x="284" y="594" type="line" smooth="yes"/>
      <point x="295" y="646"/>
      <point x="296" y="743"/>
      <point x="216" y="743" type="curve" smooth="yes"/>
      <point x="141" y="743"/>
      <point x="100" y="659"/>
      <point x="87" y="594" type="curve" smooth="yes"/>
      <point x="-9" y="141" type="line" smooth="yes"/>
      <point x="-22" y="76"/>
      <point x="-20" y="-8"/>
      <point x="57" y="-8" type="curve" smooth="yes"/>
      <point x="133" y="-8"/>
      <point x="171" y="64"/>
      <point x="187" y="141" type="curve" smooth="yes"/>
      <point x="211" y="252" type="line"/>
    </contour>
    <contour>
      <point x="274" y="825" type="line"/>
      <point x="334" y="915" type="line"/>
      <point x="269" y="915" type="line"/>
      <point x="244" y="876" type="line"/>
      <point x="235" y="915" type="line"/>
      <point x="170" y="915" type="line"/>
      <point x="193" y="825" type="line"/>
    </contour>
  </outline>
</glyph>
<glyph name="dcaron" format="1">
  <advance width="322"/>
  <unicode hex="010F"/>
  <outline>
    <contour>
      <point x="303" y="735" type="line"/>
      <point x="224" y="735" type="line"/>
      <point x="182" y="535" type="line"/>
      <point x="173" y="545"/>
      <point x="163" y="555"/>
      <point x="147" y="555" type="curve" smooth="yes"/>
      <point x="126" y="555"/>
      <point x="106" y="537"/>
      <point x="95" y="519" type="curve" smooth="yes"/>
      <point x="83" y="498"/>
      <point x="74" y="471"/>
      <point x="69" y="448" type="curve" smooth="yes"/>
      <point x="-4" y="99" type="line" smooth="yes"/>
      <point x="-9" y="76"/>
      <point x="-12" y="49"/>
      <point x="-8" y="29" type="curve"/>
      <point x="-5" y="9"/>
      <point x="6" y="-8"/>
      <point x="27" y="-8" type="curve" smooth="yes"/>
      <point x="35" y="-8"/>
      <point x="46" y="-5"/>
      <point x="53" y="-1" type="curve"/>
      <point x="56" y="1"/>
      <point x="67" y="10"/>
      <point x="71" y="13" type="curve"/>
      <point x="68" y="0" type="line"/>
      <point x="147" y="0" type="line"/>
    </contour>
    <contour>
      <point x="406" y="735" type="line"/>
      <point x="325" y="735" type="line"/>
      <point x="302" y="624" type="line"/>
      <point x="327" y="624" type="line"/>
      <point x="274" y="494" type="line"/>
      <point x="322" y="494" type="line"/>
      <point x="383" y="624" type="line"/>
    </contour>
    <contour>
      <point x="93" y="120" type="line" smooth="yes"/>
      <point x="89" y="101"/>
      <point x="81" y="87"/>
      <point x="77" y="87" type="curve" smooth="yes"/>
      <point x="73" y="87"/>
      <point x="73" y="101"/>
      <point x="77" y="120" type="curve" smooth="yes"/>
      <point x="143" y="427" type="line" smooth="yes"/>
      <point x="147" y="446"/>
      <point x="153" y="460"/>
      <point x="157" y="460" type="curve" smooth="yes"/>
      <point x="161" y="460"/>
      <point x="162" y="443"/>
      <point x="159" y="427" type="curve" smooth="yes"/>
    </contour>
  </outline>
</glyph>
<glyph name="Eogonek" format="1">
  <advance width="214"/>
  <unicode hex="0118"/>
  <outline>
    <contour>
      <point x="151" y="0" type="line"/>
      <point x="175" y="111" type="line"/>
      <point x="92" y="111" type="line"/>
      <point x="135" y="313" type="line"/>
      <point x="195" y="313" type="line"/>
      <point x="220" y="431" type="line"/>
      <point x="160" y="431" type="line"/>
      <point x="201" y="624" type="line"/>
      <point x="284" y="624" type="line"/>
      <point x="308" y="735" type="line"/>
      <point x="142" y="735" type="line"/>
      <point x="-14" y="0" type="line"/>
      <point x="80" y="0" type="line"/>
      <point x="69" y="-11"/>
      <point x="60" y="-22"/>
      <point x="55" y="-28" type="curve"/>
      <point x="54" y="-29"/>
      <point x="53" y="-30"/>
      <point x="52" y="-31" type="curve"/>
      <point x="38" y="-50"/>
      <point x="20" y="-80"/>
      <point x="16" y="-103" type="curve"/>
      <point x="6" y="-148"/>
      <point x="23" y="-188"/>
      <point x="68" y="-188" type="curve" smooth="yes"/>
      <point x="82" y="-188"/>
      <point x="92" y="-185"/>
      <point x="110" y="-176" type="curve"/>
      <point x="131" y="-101" type="line"/>
      <point x="114" y="-112"/>
      <point x="98" y="-121"/>
      <point x="93" y="-121" type="curve" smooth="yes"/>
      <point x="83" y="-121"/>
      <point x="74" y="-112"/>
      <point x="80" y="-83" type="curve"/>
      <point x="82" y="-71"/>
      <point x="86" y="-60"/>
      <point x="91" y="-50" type="curve" smooth="yes"/>
      <point x="102" y="-28"/>
      <point x="112" y="-11"/>
      <point x="122" y="0" type="curve"/>
    </contour>
  </outline>
</glyph>
<glyph name="Gbreve" format="1">
  <advance width="246"/>
  <unicode hex="011E"/>
  <outline>
    <contour>
      <point x="258" y="471" type="line"/>
      <point x="284" y="594" type="line" smooth="yes"/>
      <point x="296" y="653"/>
      <point x="297" y="743"/>
      <point x="217" y="743" type="curve" smooth="yes"/>
      <point x="142" y="743"/>
      <point x="100" y="660"/>
      <point x="86" y="594" type="curve" smooth="yes"/>
      <point x="-9" y="141" type="line" smooth="yes"/>
      <point x="-20" y="89"/>
      <point x="-24" y="-8"/>
      <point x="49" y="-8" type="curve" smooth="yes"/>
      <point x="67" y="-8"/>
      <point x="99" y="9"/>
      <point x="111" y="27" type="curve"/>
      <point x="115" y="0" type="line"/>
      <point x="158" y="0" type="line"/>
      <point x="235" y="366" type="line"/>
      <point x="140" y="366" type="line"/>
      <point x="121" y="275" type="line"/>
      <point x="139" y="275" type="line"/>
      <point x="109" y="132" type="line" smooth="yes"/>
      <point x="105" y="114"/>
      <point x="97" y="88"/>
      <point x="79" y="88" type="curve" smooth="yes"/>
      <point x="67" y="88"/>
      <point x="67" y="109"/>
      <point x="72" y="132" type="curve" smooth="yes"/>
      <point x="170" y="594" type="line" smooth="yes"/>
      <point x="174" y="612"/>
      <point x="183" y="638"/>
      <point x="194" y="638" type="curve" smooth="yes"/>
      <point x="208" y="638"/>
      <point x="204" y="609"/>
      <point x="201" y="594" type="curve" smooth="yes"/>
      <point x="175" y="471" type="line"/>
    </contour>
    <contour>
      <point x="292" y="927" type="line"/>
      <point x="292" y="927"/>
      <point x="266" y="896"/>
      <point x="250" y="896" type="curve" smooth="yes"/>
      <point x="232" y="896"/>
      <point x="224" y="928"/>
      <point x="224" y="928" type="curve"/>
      <point x="171" y="871" type="line"/>
      <point x="178" y="845"/>
      <point x="204" y="823"/>
      <point x="235" y="823" type="curve" smooth="yes"/>
      <point x="266" y="823"/>
      <point x="295" y="843"/>
      <point x="319" y="871" type="curve"/>
    </contour>
  </outline>
</glyph>
<glyph name="Gcommaaccent" format="1">
  <advance width="246"/>
  <unicode hex="0122"/>
  <outline>
    <contour>
      <point x="97" y="-54" type="line"/>
      <point x="29" y="-54" type="line"/>
      <point x="14" y="-123" type="line"/>
      <point x="36" y="-123" type="line"/>
      <point x="6" y="-188" type="line"/>
      <point x="55" y="-188" type="line"/>
      <point x="82" y="-123" type="line"/>
    </contour>
    <contour>
      <point x="277" y="471" type="line"/>
      <point x="303" y="594" type="line" smooth="yes"/>
      <point x="316" y="653"/>
      <point x="316" y="743"/>
      <point x="236" y="743" type="curve" smooth="yes"/>
      <point x="161" y="743"/>
      <point x="119" y="660"/>
      <point x="105" y="594" type="curve" smooth="yes"/>
      <point x="9" y="141" type="line" smooth="yes"/>
      <point x="-1" y="89"/>
      <point x="-5" y="-8"/>
      <point x="68" y="-8" type="curve" smooth="yes"/>
      <point x="86" y="-8"/>
      <point x="118" y="9"/>
      <point x="131" y="27" type="curve"/>
      <point x="134" y="0" type="line"/>
      <point x="177" y="0" type="line"/>
      <point x="255" y="366" type="line"/>
      <point x="160" y="366" type="line"/>
      <point x="141" y="275" type="line"/>
      <point x="159" y="275" type="line"/>
      <point x="128" y="132" type="line" smooth="yes"/>
      <point x="124" y="114"/>
      <point x="117" y="88"/>
      <point x="99" y="88" type="curve" smooth="yes"/>
      <point x="87" y="88"/>
      <point x="86" y="109"/>
      <point x="91" y="132" type="curve" smooth="yes"/>
      <point x="189" y="594" type="line" smooth="yes"/>
      <point x="193" y="612"/>
      <point x="203" y="638"/>
      <point x="214" y="638" type="curve" smooth="yes"/>
      <point x="228" y="638"/>
      <point x="224" y="609"/>
      <point x="220" y="594" type="curve"/>
      <point x="194" y="471" type="line"/>
    </contour>
  </outline>
</glyph>
<glyph name="Hcircumflex" format="1">
  <advance width="258"/>
  <unicode hex="0124"/>
  <outline>
    <contour>
      <point x="82" y="0" type="line"/>
      <point x="165" y="0" type="line"/>
      <point x="321" y="735" type="line"/>
      <point x="238" y="735" type="line"/>
      <point x="174" y="431" type="line"/>
      <point x="142" y="431" type="line"/>
      <point x="206" y="735" type="line"/>
      <point x="123" y="735" type="line"/>
      <point x="-32" y="0" type="line"/>
      <point x="50" y="0" type="line"/>
      <point x="118" y="320" type="line"/>
      <point x="150" y="320" type="line"/>
    </contour>
    <contour>
      <point x="216" y="890" type="line"/>
      <point x="155" y="800" type="line"/>
      <point x="220" y="800" type="line"/>
      <point x="246" y="839" type="line"/>
      <point x="254" y="800" type="line"/>
      <point x="319" y="800" type="line"/>
      <point x="297" y="890" type="line"/>
    </contour>
  </outline>
</glyph>
<glyph name="hcircumflex" format="1">
  <advance width="232"/>
  <unicode hex="0125"/>
  <outline>
    <contour>
      <point x="201" y="657" type="line"/>
      <point x="208" y="637" type="line"/>
      <point x="280" y="637" type="line"/>
      <point x="258" y="727" type="line"/>
      <point x="209" y="727" type="line"/>
      <point x="211" y="735" type="line"/>
      <point x="132" y="735" type="line"/>
      <point x="-24" y="0" type="line"/>
      <point x="54" y="0" type="line"/>
      <point x="146" y="431" type="line" smooth="yes"/>
      <point x="149" y="444"/>
      <point x="156" y="467"/>
      <point x="167" y="467" type="curve" smooth="yes"/>
      <point x="179" y="467"/>
      <point x="175" y="443"/>
      <point x="172" y="431" type="curve" smooth="yes"/>
      <point x="80" y="0" type="line"/>
      <point x="155" y="0" type="line"/>
      <point x="251" y="448" type="line" smooth="yes"/>
      <point x="258" y="481"/>
      <point x="265" y="555"/>
      <point x="215" y="555" type="curve" smooth="yes"/>
      <point x="198" y="555"/>
      <point x="172" y="538"/>
      <point x="166" y="525" type="curve"/>
      <point x="190" y="639" type="line"/>
    </contour>
  </outline>
</glyph>
<glyph name="Hbar" format="1">
  <advance width="258"/>
  <unicode hex="0126"/>
  <outline>
    <contour>
      <point x="331" y="627" type="line"/>
      <point x="307" y="627" type="line"/>
      <point x="330" y="735" type="line"/>
      <point x="247" y="735" type="line"/>
      <point x="224" y="627" type="line"/>
      <point x="192" y="627" type="line"/>
      <point x="215" y="735" type="line"/>
      <point x="132" y="735" type="line"/>
      <point x="109" y="627" type="line"/>
      <point x="86" y="627" type="line"/>
      <point x="69" y="548" type="line"/>
      <point x="92" y="548" type="line"/>
      <point x="-24" y="0" type="line"/>
      <point x="58" y="0" type="line"/>
      <point x="127" y="320" type="line"/>
      <point x="159" y="320" type="line"/>
      <point x="90" y="0" type="line"/>
      <point x="173" y="0" type="line"/>
      <point x="290" y="548" type="line"/>
      <point x="314" y="548" type="line"/>
    </contour>
    <contour>
      <point x="182" y="431" type="line"/>
      <point x="150" y="431" type="line"/>
      <point x="175" y="548" type="line"/>
      <point x="207" y="548" type="line"/>
    </contour>
  </outline>
</glyph>
<glyph name="hbar" format="1">
  <advance width="232"/>
  <unicode hex="0127"/>
  <outline>
    <contour>
      <point x="146" y="431" type="line" smooth="yes"/>
      <point x="149" y="444"/>
      <point x="156" y="467"/>
      <point x="167" y="467" type="curve" smooth="yes"/>
      <point x="179" y="467"/>
      <point x="175" y="443"/>
      <point x="172" y="431" type="curve" smooth="yes"/>
      <point x="80" y="0" type="line"/>
      <point x="155" y="0" type="line"/>
      <point x="251" y="448" type="line" smooth="yes"/>
      <point x="258" y="481"/>
      <point x="265" y="555"/>
      <point x="215" y="555" type="curve" smooth="yes"/>
      <point x="198" y="555"/>
      <point x="172" y="538"/>
      <point x="166" y="525" type="curve"/>
      <point x="185" y="612" type="line"/>
      <point x="218" y="612" type="line"/>
      <point x="234" y="691" type="line"/>
      <point x="201" y="691" type="line"/>
      <point x="211" y="735" type="line"/>
      <point x="132" y="735" type="line"/>
      <point x="122" y="691" type="line"/>
      <point x="99" y="691" type="line"/>
      <point x="83" y="612" type="line"/>
      <point x="106" y="612" type="line"/>
      <point x="-24" y="0" type="line"/>
      <point x="54" y="0" type="line"/>
    </contour>
  </outline>
</glyph>
<glyph name="Itilde" format="1">
  <advance width="143"/>
  <unicode hex="0128"/>
  <outline>
    <contour>
      <point x="-34" y="0" type="line"/>
      <point x="48" y="0" type="line"/>
      <point x="204" y="735" type="line"/>
      <point x="121" y="735" type="line"/>
    </contour>
    <contour>
      <point x="112" y="810" type="line"/>
      <point x="119" y="817"/>
      <point x="147" y="840"/>
      <point x="159" y="840" type="curve" smooth="yes"/>
      <point x="179" y="840"/>
      <point x="186" y="821"/>
      <point x="209" y="821" type="curve" smooth="yes"/>
      <point x="227" y="821"/>
      <point x="243" y="833"/>
      <point x="254" y="846" type="curve"/>
      <point x="272" y="929" type="line"/>
      <point x="264" y="919"/>
      <point x="238" y="900"/>
      <point x="225" y="900" type="curve" smooth="yes"/>
      <point x="206" y="900"/>
      <point x="199" y="917"/>
      <point x="176" y="917" type="curve" smooth="yes"/>
      <point x="161" y="917"/>
      <point x="142" y="909"/>
      <point x="131" y="896" type="curve"/>
    </contour>
  </outline>
</glyph>
<glyph name="itilde" format="1">
  <advance width="139"/>
  <unicode hex="0129"/>
  <outline>
    <contour>
      <point x="54" y="0" type="line"/>
      <point x="170" y="547" type="line"/>
      <point x="91" y="547" type="line"/>
      <point x="-24" y="0" type="line"/>
    </contour>
    <contour>
      <point x="80" y="623" type="line"/>
      <point x="87" y="630"/>
      <point x="115" y="653"/>
      <point x="127" y="653" type="curve" smooth="yes"/>
      <point x="147" y="653"/>
      <point x="154" y="634"/>
      <point x="177" y="634" type="curve" smooth="yes"/>
      <point x="195" y="634"/>
      <point x="211" y="646"/>
      <point x="222" y="659" type="curve"/>
      <point x="240" y="742" type="line"/>
      <point x="232" y="732"/>
      <point x="207" y="713"/>
      <point x="194" y="713" type="curve" smooth="yes"/>
      <point x="175" y="713"/>
      <point x="167" y="730"/>
      <point x="144" y="730" type="curve" smooth="yes"/>
      <point x="129" y="730"/>
      <point x="111" y="722"/>
      <point x="99" y="709" type="curve"/>
    </contour>
  </outline>
</glyph>
<glyph name="Imacron" format="1">
  <advance width="143"/>
  <unicode hex="012A"/>
  <outline>
    <contour>
      <point x="118" y="830" type="line"/>
      <point x="252" y="830" type="line"/>
      <point x="268" y="909" type="line"/>
      <point x="134" y="909" type="line"/>
    </contour>
    <contour>
      <point x="-33" y="0" type="line"/>
      <point x="49" y="0" type="line"/>
      <point x="205" y="735" type="line"/>
      <point x="122" y="735" type="line"/>
    </contour>
  </outline>
</glyph>
<glyph name="Ibreve" format="1">
  <advance width="143"/>
  <unicode hex="012C"/>
  <outline>
    <contour>
      <point x="-34" y="0" type="line"/>
      <point x="48" y="0" type="line"/>
      <point x="204" y="735" type="line"/>
      <point x="121" y="735" type="line"/>
    </contour>
    <contour>
      <point x="239" y="928" type="line"/>
      <point x="239" y="928"/>
      <point x="214" y="897"/>
      <point x="198" y="897" type="curve" smooth="yes"/>
      <point x="180" y="897"/>
      <point x="172" y="929"/>
      <point x="172" y="929" type="curve"/>
      <point x="119" y="872" type="line"/>
      <point x="126" y="846"/>
      <point x="151" y="824"/>
      <point x="182" y="824" type="curve" smooth="yes"/>
      <point x="213" y="824"/>
      <point x="243" y="844"/>
      <point x="267" y="872" type="curve"/>
    </contour>
  </outline>
</glyph>
<glyph name="Iogonek" format="1">
  <advance width="143"/>
  <unicode hex="012E"/>
  <outline>
    <contour>
      <point x="68" y="0" type="line"/>
      <point x="225" y="735" type="line"/>
      <point x="142" y="735" type="line"/>
      <point x="-14" y="0" type="line"/>
      <point x="-4" y="0" type="line"/>
      <point x="-14" y="-11"/>
      <point x="-22" y="-21"/>
      <point x="-27" y="-28" type="curve"/>
      <point x="-28" y="-29"/>
      <point x="-29" y="-30"/>
      <point x="-30" y="-31" type="curve"/>
      <point x="-44" y="-50"/>
      <point x="-61" y="-79"/>
      <point x="-66" y="-103" type="curve" smooth="yes"/>
      <point x="-76" y="-148"/>
      <point x="-59" y="-188"/>
      <point x="-14" y="-188" type="curve" smooth="yes"/>
      <point x="-1" y="-188"/>
      <point x="9" y="-185"/>
      <point x="27" y="-176" type="curve"/>
      <point x="47" y="-101" type="line"/>
      <point x="30" y="-112"/>
      <point x="14" y="-121"/>
      <point x="9" y="-121" type="curve" smooth="yes"/>
      <point x="0" y="-121"/>
      <point x="-9" y="-112"/>
      <point x="-3" y="-83" type="curve"/>
      <point x="-1" y="-71"/>
      <point x="2" y="-60"/>
      <point x="7" y="-50" type="curve" smooth="yes"/>
      <point x="17" y="-30"/>
      <point x="29" y="-13"/>
      <point x="39" y="0" type="curve"/>
    </contour>
  </outline>
</glyph>
<glyph name="dotlessi" format="1">
  <advance width="139"/>
  <unicode hex="0131"/>
  <outline>
    <contour>
      <point x="64" y="0" type="line"/>
      <point x="181" y="547" type="line"/>
      <point x="102" y="547" type="line"/>
      <point x="-14" y="0" type="line"/>
    </contour>
  </outline>
</glyph>
<glyph name="IJ" format="1">
  <advance width="267"/>
  <unicode hex="0132"/>
  <outline>
    <contour>
      <point x="-23" y="0" type="line"/>
      <point x="59" y="0" type="line"/>
      <point x="215" y="735" type="line"/>
      <point x="132" y="735" type="line"/>
    </contour>
    <contour>
      <point x="76" y="-6" type="line"/>
      <point x="168" y="-15"/>
      <point x="208" y="51"/>
      <point x="226" y="136" type="curve" smooth="yes"/>
      <point x="353" y="735" type="line"/>
      <point x="270" y="735" type="line"/>
      <point x="146" y="153" type="line" smooth="yes"/>
      <point x="142" y="133"/>
      <point x="130" y="95"/>
      <point x="98" y="102" type="curve"/>
    </contour>
  </outline>
</glyph>
<glyph name="ij" format="1">
  <advance width="245"/>
  <unicode hex="0133"/>
  <outline>
    <contour>
      <point x="120" y="634" type="line"/>
      <point x="199" y="634" type="line"/>
      <point x="221" y="735" type="line"/>
      <point x="142" y="735" type="line"/>
    </contour>
    <contour>
      <point x="64" y="0" type="line"/>
      <point x="181" y="547" type="line"/>
      <point x="102" y="547" type="line"/>
      <point x="-14" y="0" type="line"/>
    </contour>
    <contour>
      <point x="228" y="634" type="line"/>
      <point x="307" y="634" type="line"/>
      <point x="329" y="735" type="line"/>
      <point x="250" y="735" type="line"/>
    </contour>
    <contour>
      <point x="210" y="547" type="line"/>
      <point x="86" y="-36" type="line" smooth="yes"/>
      <point x="81" y="-59"/>
      <point x="75" y="-101"/>
      <point x="42" y="-89" type="curve"/>
      <point x="20" y="-180" type="line"/>
      <point x="34" y="-187"/>
      <point x="43" y="-188"/>
      <point x="54" y="-188" type="curve" smooth="yes"/>
      <point x="92" y="-188"/>
      <point x="121" y="-157"/>
      <point x="138" y="-122" type="curve" smooth="yes"/>
      <point x="154" y="-86"/>
      <point x="164" y="-42"/>
      <point x="170" y="-14" type="curve" smooth="yes"/>
      <point x="289" y="547" type="line"/>
    </contour>
  </outline>
</glyph>
<glyph name="Jcircumflex" format="1">
  <advance width="154"/>
  <unicode hex="0134"/>
  <outline>
    <contour>
      <point x="170" y="890" type="line"/>
      <point x="109" y="800" type="line"/>
      <point x="174" y="800" type="line"/>
      <point x="199" y="839" type="line"/>
      <point x="208" y="800" type="line"/>
      <point x="273" y="800" type="line"/>
      <point x="251" y="890" type="line"/>
    </contour>
    <contour>
      <point x="-55" y="-6" type="line"/>
      <point x="36" y="-15"/>
      <point x="76" y="51"/>
      <point x="95" y="136" type="curve" smooth="yes"/>
      <point x="222" y="735" type="line"/>
      <point x="139" y="735" type="line"/>
      <point x="15" y="153" type="line" smooth="yes"/>
      <point x="11" y="133"/>
      <point x="0" y="95"/>
      <point x="-32" y="102" type="curve"/>
    </contour>
  </outline>
</glyph>
<glyph name="jcircumflex" format="1">
  <advance width="137"/>
  <unicode hex="0135"/>
  <outline>
    <contour>
      <point x="244" y="645" type="line"/>
      <point x="221" y="735" type="line"/>
      <point x="140" y="735" type="line"/>
      <point x="80" y="645" type="line"/>
      <point x="121" y="645" type="line"/>
      <point x="118" y="634" type="line"/>
      <point x="197" y="634" type="line"/>
      <point x="200" y="645" type="line"/>
    </contour>
    <contour>
      <point x="180" y="547" type="line"/>
      <point x="61" y="-14" type="line" smooth="yes"/>
      <point x="55" y="-42"/>
      <point x="45" y="-86"/>
      <point x="29" y="-122" type="curve" smooth="yes"/>
      <point x="12" y="-157"/>
      <point x="-16" y="-188"/>
      <point x="-54" y="-188" type="curve" smooth="yes"/>
      <point x="-65" y="-188"/>
      <point x="-74" y="-187"/>
      <point x="-88" y="-180" type="curve"/>
      <point x="-66" y="-89" type="line"/>
      <point x="-33" y="-101"/>
      <point x="-27" y="-59"/>
      <point x="-22" y="-36" type="curve" smooth="yes"/>
      <point x="101" y="547" type="line"/>
    </contour>
  </outline>
</glyph>
<glyph name="kcommaaccent" format="1">
  <advance width="218"/>
  <unicode hex="0137"/>
  <outline>
    <contour>
      <point x="97" y="-54" type="line"/>
      <point x="29" y="-54" type="line"/>
      <point x="14" y="-123" type="line"/>
      <point x="32" y="-123" type="line"/>
      <point x="7" y="-188" type="line"/>
      <point x="56" y="-188" type="line"/>
      <point x="82" y="-123" type="line"/>
    </contour>
    <contour>
      <point x="142" y="735" type="line"/>
      <point x="-14" y="0" type="line"/>
      <point x="61" y="0" type="line"/>
      <point x="111" y="232" type="line"/>
      <point x="96" y="0" type="line"/>
      <point x="172" y="0" type="line"/>
      <point x="184" y="359" type="line"/>
      <point x="291" y="547" type="line"/>
      <point x="215" y="547" type="line"/>
      <point x="154" y="433" type="line"/>
      <point x="218" y="735" type="line"/>
    </contour>
  </outline>
</glyph>
<glyph name="kgreenlandic" format="1">
  <advance width="218"/>
  <unicode hex="0138"/>
  <outline>
    <contour>
      <point x="132" y="735" type="line"/>
      <point x="-24" y="0" type="line"/>
      <point x="51" y="0" type="line"/>
      <point x="101" y="232" type="line"/>
      <point x="86" y="0" type="line"/>
      <point x="162" y="0" type="line"/>
      <point x="174" y="359" type="line"/>
      <point x="281" y="547" type="line"/>
      <point x="205" y="547" type="line"/>
      <point x="144" y="433" type="line"/>
      <point x="208" y="735" type="line"/>
    </contour>
  </outline>
</glyph>
<glyph name="Lacute" format="1">
  <advance width="207"/>
  <unicode hex="0139"/>
  <outline>
    <contour>
      <point x="209" y="915" type="line"/>
      <point x="159" y="825" type="line"/>
      <point x="223" y="825" type="line"/>
      <point x="289" y="915" type="line"/>
    </contour>
    <contour>
      <point x="-33" y="0" type="line"/>
      <point x="135" y="0" type="line"/>
      <point x="156" y="100" type="line"/>
      <point x="70" y="100" type="line"/>
      <point x="205" y="735" type="line"/>
      <point x="122" y="735" type="line"/>
    </contour>
  </outline>
</glyph>
<glyph name="lcommaaccent" format="1">
  <advance width="139"/>
  <unicode hex="013C"/>
  <outline>
    <contour>
      <point x="64" y="0" type="line"/>
      <point x="220" y="735" type="line"/>
      <point x="141" y="735" type="line"/>
      <point x="-14" y="0" type="line"/>
    </contour>
    <contour>
      <point x="50" y="-47" type="line"/>
      <point x="-17" y="-47" type="line"/>
      <point x="-32" y="-116" type="line"/>
      <point x="-14" y="-116" type="line"/>
      <point x="-39" y="-181" type="line"/>
      <point x="9" y="-181" type="line"/>
      <point x="35" y="-116" type="line"/>
    </contour>
  </outline>
</glyph>
<glyph name="ldot" format="1">
  <advance width="223"/>
  <unicode hex="0140"/>
  <outline>
    <contour>
      <point x="54" y="0" type="line"/>
      <point x="211" y="735" type="line"/>
      <point x="132" y="735" type="line"/>
      <point x="-24" y="0" type="line"/>
    </contour>
    <contour>
      <point x="152" y="317" type="line"/>
      <point x="233" y="317" type="line"/>
      <point x="256" y="428" type="line"/>
      <point x="175" y="428" type="line"/>
    </contour>
  </outline>
</glyph>
<glyph name="Lslash" format="1">
  <advance width="214"/>
  <unicode hex="0141"/>
  <outline>
    <contour>
      <point x="13" y="250" type="line"/>
      <point x="13" y="250"/>
      <point x="41" y="282"/>
      <point x="43" y="283" type="curve"/>
      <point x="-17" y="0" type="line"/>
      <point x="151" y="0" type="line"/>
      <point x="173" y="100" type="line"/>
      <point x="87" y="100" type="line"/>
      <point x="147" y="383" type="line"/>
      <point x="146" y="383" type="line"/>
      <point x="192" y="431" type="line"/>
      <point x="219" y="559" type="line"/>
      <point x="175" y="513" type="line"/>
      <point x="222" y="735" type="line"/>
      <point x="139" y="735" type="line"/>
      <point x="70" y="412" type="line"/>
      <point x="71" y="412" type="line"/>
      <point x="41" y="382" type="line"/>
    </contour>
  </outline>
</glyph>
<glyph name="lslash" format="1">
  <advance width="167"/>
  <unicode hex="0142"/>
  <outline>
    <contour>
      <point x="68" y="0" type="line"/>
      <point x="152" y="391" type="line"/>
      <point x="151" y="391" type="line"/>
      <point x="189" y="431" type="line"/>
      <point x="216" y="559" type="line"/>
      <point x="207" y="549"/>
      <point x="191" y="533"/>
      <point x="179" y="521" type="curve"/>
      <point x="225" y="735" type="line"/>
      <point x="146" y="735" type="line"/>
      <point x="79" y="420" type="line"/>
      <point x="80" y="420" type="line"/>
      <point x="41" y="380" type="line"/>
      <point x="14" y="252" type="line"/>
      <point x="23" y="262"/>
      <point x="40" y="278"/>
      <point x="51" y="290" type="curve"/>
      <point x="-10" y="0" type="line"/>
    </contour>
  </outline>
</glyph>
<glyph name="napostrophe" format="1">
  <advance width="232"/>
  <unicode hex="0149"/>
  <outline>
    <contour>
      <point x="173" y="704" type="line"/>
      <point x="104" y="704" type="line"/>
      <point x="89" y="635" type="line"/>
      <point x="108" y="635" type="line"/>
      <point x="82" y="570" type="line"/>
      <point x="130" y="570" type="line"/>
      <point x="158" y="635" type="line"/>
    </contour>
    <contour>
      <point x="148" y="431" type="line" smooth="yes"/>
      <point x="152" y="452"/>
      <point x="159" y="467"/>
      <point x="169" y="467" type="curve" smooth="yes"/>
      <point x="179" y="467"/>
      <point x="181" y="453"/>
      <point x="177" y="432" type="curve" smooth="yes"/>
      <point x="85" y="0" type="line"/>
      <point x="163" y="0" type="line"/>
      <point x="258" y="448" type="line" smooth="yes"/>
      <point x="265" y="481"/>
      <point x="277" y="555"/>
      <point x="227" y="555" type="curve" smooth="yes"/>
      <point x="210" y="555"/>
      <point x="180" y="534"/>
      <point x="166" y="519" type="curve"/>
      <point x="172" y="547" type="line"/>
      <point x="93" y="547" type="line"/>
      <point x="-22" y="0" type="line"/>
      <point x="56" y="0" type="line"/>
    </contour>
  </outline>
</glyph>
<glyph name="Eng" format="1">
  <advance width="267"/>
  <unicode hex="014A"/>
  <outline>
    <contour>
      <point x="268" y="735" type="line"/>
      <point x="194" y="386" type="line"/>
      <point x="209" y="735" type="line"/>
      <point x="138" y="735" type="line"/>
      <point x="-17" y="0" type="line"/>
      <point x="59" y="0" type="line"/>
      <point x="134" y="352" type="line"/>
      <point x="113" y="0" type="line"/>
      <point x="105" y="-12"/>
      <point x="96" y="-20"/>
      <point x="85" y="-16" type="curve"/>
      <point x="62" y="-120" type="line"/>
      <point x="104" y="-126"/>
      <point x="135" y="-110"/>
      <point x="153" y="-84" type="curve" smooth="yes"/>
      <point x="169" y="-61"/>
      <point x="181" y="-31"/>
      <point x="189" y="0" type="curve"/>
      <point x="345" y="735" type="line"/>
    </contour>
  </outline>
</glyph>
<glyph name="Obreve" format="1">
  <advance width="242"/>
  <unicode hex="014E"/>
  <outline>
    <contour>
      <point x="287" y="594" type="line" smooth="yes"/>
      <point x="300" y="654"/>
      <point x="299" y="743"/>
      <point x="219" y="743" type="curve" smooth="yes"/>
      <point x="144" y="743"/>
      <point x="102" y="670"/>
      <point x="86" y="594" type="curve" smooth="yes"/>
      <point x="-9" y="141" type="line" smooth="yes"/>
      <point x="-24" y="71"/>
      <point x="-18" y="-8"/>
      <point x="59" y="-8" type="curve" smooth="yes"/>
      <point x="135" y="-8"/>
      <point x="174" y="65"/>
      <point x="191" y="141" type="curve" smooth="yes"/>
    </contour>
    <contour>
      <point x="108" y="141" type="line" smooth="yes"/>
      <point x="103" y="118"/>
      <point x="92" y="97"/>
      <point x="82" y="97" type="curve" smooth="yes"/>
      <point x="73" y="97"/>
      <point x="69" y="114"/>
      <point x="75" y="141" type="curve" smooth="yes"/>
      <point x="171" y="594" type="line" smooth="yes"/>
      <point x="176" y="618"/>
      <point x="186" y="638"/>
      <point x="197" y="638" type="curve" smooth="yes"/>
      <point x="208" y="638"/>
      <point x="209" y="617"/>
      <point x="204" y="594" type="curve" smooth="yes"/>
    </contour>
    <contour>
      <point x="290" y="928" type="line"/>
      <point x="290" y="928"/>
      <point x="264" y="897"/>
      <point x="248" y="897" type="curve" smooth="yes"/>
      <point x="230" y="897"/>
      <point x="222" y="929"/>
      <point x="222" y="929" type="curve"/>
      <point x="169" y="872" type="line"/>
      <point x="176" y="846"/>
      <point x="202" y="824"/>
      <point x="233" y="824" type="curve" smooth="yes"/>
      <point x="264" y="824"/>
      <point x="293" y="844"/>
      <point x="317" y="872" type="curve"/>
    </contour>
  </outline>
</glyph>
<glyph name="obreve" format="1">
  <advance width="223"/>
  <unicode hex="014F"/>
  <outline>
    <contour>
      <point x="244" y="414" type="line" smooth="yes"/>
      <point x="260" y="491"/>
      <point x="263" y="555"/>
      <point x="183" y="555" type="curve" smooth="yes"/>
      <point x="109" y="555"/>
      <point x="74" y="487"/>
      <point x="58" y="411" type="curve" smooth="yes"/>
      <point x="0" y="136" type="line" smooth="yes"/>
      <point x="-14" y="68"/>
      <point x="-17" y="-8"/>
      <point x="61" y="-8" type="curve" smooth="yes"/>
      <point x="133" y="-8"/>
      <point x="166" y="49"/>
      <point x="184" y="133" type="curve" smooth="yes"/>
    </contour>
    <contour>
      <point x="107" y="126" type="line"/>
      <point x="106" y="117"/>
      <point x="96" y="81"/>
      <point x="80" y="81" type="curve" smooth="yes"/>
      <point x="66" y="81"/>
      <point x="67" y="104"/>
      <point x="72" y="126" type="curve" smooth="yes"/>
      <point x="135" y="421" type="line" smooth="yes"/>
      <point x="141" y="448"/>
      <point x="149" y="467"/>
      <point x="163" y="467" type="curve" smooth="yes"/>
      <point x="179" y="467"/>
      <point x="176" y="446"/>
      <point x="170" y="421" type="curve" smooth="yes"/>
    </contour>
    <contour>
      <point x="250" y="740" type="line"/>
      <point x="250" y="740"/>
      <point x="224" y="709"/>
      <point x="208" y="709" type="curve" smooth="yes"/>
      <point x="190" y="709"/>
      <point x="182" y="741"/>
      <point x="182" y="741" type="curve"/>
      <point x="129" y="684" type="line"/>
      <point x="136" y="658"/>
      <point x="162" y="636"/>
      <point x="193" y="636" type="curve" smooth="yes"/>
      <point x="224" y="636"/>
      <point x="253" y="656"/>
      <point x="277" y="684" type="curve"/>
    </contour>
  </outline>
</glyph>
<glyph name="Ohungarumlaut" format="1">
  <advance width="242"/>
  <unicode hex="0150"/>
  <outline>
    <contour>
      <point x="184" y="915" type="line"/>
      <point x="134" y="825" type="line"/>
      <point x="197" y="825" type="line"/>
      <point x="264" y="915" type="line"/>
    </contour>
    <contour>
      <point x="293" y="915" type="line"/>
      <point x="242" y="825" type="line"/>
      <point x="306" y="825" type="line"/>
      <point x="373" y="915" type="line"/>
    </contour>
    <contour>
      <point x="288" y="594" type="line" smooth="yes"/>
      <point x="300" y="654"/>
      <point x="299" y="743"/>
      <point x="219" y="743" type="curve" smooth="yes"/>
      <point x="144" y="743"/>
      <point x="103" y="670"/>
      <point x="87" y="594" type="curve" smooth="yes"/>
      <point x="-9" y="141" type="line" smooth="yes"/>
      <point x="-24" y="71"/>
      <point x="-17" y="-8"/>
      <point x="60" y="-8" type="curve" smooth="yes"/>
      <point x="136" y="-8"/>
      <point x="175" y="65"/>
      <point x="191" y="141" type="curve" smooth="yes"/>
    </contour>
    <contour>
      <point x="108" y="141" type="line" smooth="yes"/>
      <point x="103" y="118"/>
      <point x="93" y="97"/>
      <point x="83" y="97" type="curve" smooth="yes"/>
      <point x="74" y="97"/>
      <point x="70" y="114"/>
      <point x="75" y="141" type="curve" smooth="yes"/>
      <point x="172" y="594" type="line" smooth="yes"/>
      <point x="177" y="618"/>
      <point x="187" y="638"/>
      <point x="198" y="638" type="curve" smooth="yes"/>
      <point x="209" y="638"/>
      <point x="210" y="617"/>
      <point x="205" y="594" type="curve" smooth="yes"/>
    </contour>
  </outline>
</glyph>
<glyph name="oe" format="1">
  <advance width="322"/>
  <unicode hex="0153"/>
  <outline>
    <contour>
      <point x="246" y="196" type="line"/>
      <point x="233" y="136" type="line" smooth="yes"/>
      <point x="229" y="117"/>
      <point x="219" y="81"/>
      <point x="203" y="81" type="curve" smooth="yes"/>
      <point x="192" y="81"/>
      <point x="195" y="114"/>
      <point x="199" y="136" type="curve"/>
      <point x="225" y="255" type="line"/>
      <point x="334" y="255" type="line"/>
      <point x="368" y="418" type="line" smooth="yes"/>
      <point x="382" y="481"/>
      <point x="387" y="555"/>
      <point x="303" y="555" type="curve" smooth="yes"/>
      <point x="282" y="555"/>
      <point x="264" y="547"/>
      <point x="248" y="535" type="curve"/>
      <point x="237" y="548"/>
      <point x="219" y="555"/>
      <point x="193" y="555" type="curve" smooth="yes"/>
      <point x="119" y="555"/>
      <point x="85" y="487"/>
      <point x="69" y="411" type="curve" smooth="yes"/>
      <point x="10" y="136" type="line" smooth="yes"/>
      <point x="-3" y="68"/>
      <point x="-6" y="-8"/>
      <point x="72" y="-8" type="curve" smooth="yes"/>
      <point x="96" y="-8"/>
      <point x="116" y="-1"/>
      <point x="133" y="10" type="curve"/>
      <point x="142" y="-1"/>
      <point x="157" y="-8"/>
      <point x="179" y="-8" type="curve" smooth="yes"/>
      <point x="256" y="-8"/>
      <point x="291" y="56"/>
      <point x="306" y="127" type="curve" smooth="yes"/>
      <point x="321" y="196" type="line"/>
    </contour>
    <contour>
      <point x="118" y="126" type="line"/>
      <point x="117" y="117"/>
      <point x="107" y="81"/>
      <point x="91" y="81" type="curve" smooth="yes"/>
      <point x="77" y="81"/>
      <point x="78" y="104"/>
      <point x="83" y="126" type="curve" smooth="yes"/>
      <point x="146" y="421" type="line" smooth="yes"/>
      <point x="152" y="448"/>
      <point x="160" y="467"/>
      <point x="174" y="467" type="curve" smooth="yes"/>
      <point x="190" y="467"/>
      <point x="187" y="446"/>
      <point x="181" y="421" type="curve" smooth="yes"/>
    </contour>
    <contour>
      <point x="258" y="411" type="line" smooth="yes"/>
      <point x="261" y="427"/>
      <point x="271" y="467"/>
      <point x="284" y="467" type="curve" smooth="yes"/>
      <point x="301" y="467"/>
      <point x="298" y="438"/>
      <point x="292" y="411" type="curve" smooth="yes"/>
      <point x="275" y="334" type="line"/>
      <point x="241" y="334" type="line"/>
    </contour>
    <contour>
      <point x="161" y="547" type="move" name="top"/>
    </contour>
  </outline>
</glyph>
<glyph name="rcommaaccent" format="1">
  <advance width="178"/>
  <unicode hex="0157"/>
  <outline>
    <contour>
      <point x="59" y="-48" type="line"/>
      <point x="-9" y="-48" type="line"/>
      <point x="-24" y="-117" type="line"/>
      <point x="-5" y="-117" type="line"/>
      <point x="-31" y="-182" type="line"/>
      <point x="17" y="-182" type="line"/>
      <point x="44" y="-117" type="line"/>
    </contour>
    <contour>
      <point x="257" y="555" type="line"/>
      <point x="223" y="555"/>
      <point x="197" y="536"/>
      <point x="182" y="517" type="curve"/>
      <point x="188" y="547" type="line"/>
      <point x="111" y="547" type="line"/>
      <point x="-4" y="0" type="line"/>
      <point x="72" y="0" type="line"/>
      <point x="153" y="380" type="line" smooth="yes"/>
      <point x="162" y="423"/>
      <point x="190" y="462"/>
      <point x="231" y="435" type="curve"/>
    </contour>
  </outline>
</glyph>
<glyph name="Rcaron" format="1">
  <advance width="247"/>
  <unicode hex="0158"/>
  <outline>
    <contour>
      <point x="173" y="0" type="line"/>
      <point x="198" y="356" type="line"/>
      <point x="230" y="387"/>
      <point x="256" y="453"/>
      <point x="271" y="523" type="curve" smooth="yes"/>
      <point x="301" y="662"/>
      <point x="284" y="735"/>
      <point x="206" y="735" type="curve" smooth="yes"/>
      <point x="122" y="735" type="line"/>
      <point x="-33" y="0" type="line"/>
      <point x="49" y="0" type="line"/>
      <point x="117" y="320" type="line"/>
      <point x="92" y="0" type="line"/>
    </contour>
    <contour>
      <point x="182" y="628" type="line"/>
      <point x="187" y="628"/>
      <point x="199" y="629"/>
      <point x="203" y="618" type="curve"/>
      <point x="209" y="606"/>
      <point x="203" y="573"/>
      <point x="191" y="519" type="curve" smooth="yes"/>
      <point x="180" y="466"/>
      <point x="171" y="429"/>
      <point x="159" y="416" type="curve"/>
      <point x="153" y="408"/>
      <point x="142" y="405"/>
      <point x="135" y="405" type="curve"/>
    </contour>
    <contour>
      <point x="276" y="825" type="line"/>
      <point x="336" y="915" type="line"/>
      <point x="271" y="915" type="line"/>
      <point x="246" y="876" type="line"/>
      <point x="237" y="915" type="line"/>
      <point x="172" y="915" type="line"/>
      <point x="195" y="825" type="line"/>
    </contour>
  </outline>
</glyph>
<glyph name="rcaron" format="1">
  <advance width="178"/>
  <unicode hex="0159"/>
  <outline>
    <contour>
      <point x="238" y="555" type="line"/>
      <point x="204" y="555"/>
      <point x="178" y="536"/>
      <point x="163" y="517" type="curve"/>
      <point x="169" y="547" type="line"/>
      <point x="92" y="547" type="line"/>
      <point x="-23" y="0" type="line"/>
      <point x="53" y="0" type="line"/>
      <point x="134" y="380" type="line" smooth="yes"/>
      <point x="143" y="423"/>
      <point x="171" y="462"/>
      <point x="212" y="435" type="curve"/>
    </contour>
    <contour>
      <point x="212" y="637" type="line"/>
      <point x="272" y="727" type="line"/>
      <point x="207" y="727" type="line"/>
      <point x="182" y="688" type="line"/>
      <point x="173" y="727" type="line"/>
      <point x="108" y="727" type="line"/>
      <point x="131" y="637" type="line"/>
    </contour>
  </outline>
</glyph>
<glyph name="Scedilla" format="1">
  <advance width="236"/>
  <unicode hex="015E"/>
  <outline>
    <contour>
      <point x="96" y="-54" type="line"/>
      <point x="28" y="-54" type="line"/>
      <point x="14" y="-123" type="line"/>
      <point x="32" y="-123" type="line"/>
      <point x="6" y="-188" type="line"/>
      <point x="55" y="-188" type="line"/>
      <point x="82" y="-123" type="line"/>
    </contour>
    <contour>
      <point x="291" y="549" type="line"/>
      <point x="304" y="610"/>
      <point x="328" y="745"/>
      <point x="232" y="743" type="curve" smooth="yes"/>
      <point x="151" y="741"/>
      <point x="116" y="635"/>
      <point x="102" y="571" type="curve" smooth="yes"/>
      <point x="90" y="514"/>
      <point x="98" y="441"/>
      <point x="107" y="382" type="curve"/>
      <point x="128" y="279"/>
      <point x="140" y="224"/>
      <point x="126" y="162" type="curve" smooth="yes"/>
      <point x="116" y="115"/>
      <point x="109" y="91"/>
      <point x="94" y="91" type="curve" smooth="yes"/>
      <point x="72" y="91"/>
      <point x="94" y="194"/>
      <point x="99" y="217" type="curve"/>
      <point x="16" y="205" type="line"/>
      <point x="1" y="138"/>
      <point x="-31" y="-8"/>
      <point x="73" y="-8" type="curve" smooth="yes"/>
      <point x="159" y="-8"/>
      <point x="195" y="97"/>
      <point x="209" y="167" type="curve" smooth="yes"/>
      <point x="225" y="241"/>
      <point x="213" y="311"/>
      <point x="196" y="398" type="curve" smooth="yes"/>
      <point x="182" y="471"/>
      <point x="173" y="523"/>
      <point x="183" y="571" type="curve" smooth="yes"/>
      <point x="192" y="614"/>
      <point x="201" y="644"/>
      <point x="213" y="644" type="curve" smooth="yes"/>
      <point x="229" y="644"/>
      <point x="212" y="563"/>
      <point x="206" y="537" type="curve"/>
    </contour>
  </outline>
</glyph>
<glyph name="scedilla" format="1">
  <advance width="215"/>
  <unicode hex="015F"/>
  <outline>
    <contour>
      <point x="96" y="-54" type="line"/>
      <point x="28" y="-54" type="line"/>
      <point x="13" y="-123" type="line"/>
      <point x="31" y="-123" type="line"/>
      <point x="5" y="-188" type="line"/>
      <point x="54" y="-188" type="line"/>
      <point x="81" y="-123" type="line"/>
    </contour>
    <contour>
      <point x="253" y="407" type="line"/>
      <point x="264" y="461"/>
      <point x="278" y="555"/>
      <point x="196" y="555" type="curve" smooth="yes"/>
      <point x="136" y="555"/>
      <point x="97" y="495"/>
      <point x="82" y="425" type="curve" smooth="yes"/>
      <point x="67" y="354"/>
      <point x="88" y="312"/>
      <point x="103" y="260" type="curve" smooth="yes"/>
      <point x="114" y="218"/>
      <point x="127" y="177"/>
      <point x="119" y="142" type="curve" smooth="yes"/>
      <point x="110" y="100"/>
      <point x="103" y="76"/>
      <point x="89" y="76" type="curve" smooth="yes"/>
      <point x="75" y="76"/>
      <point x="80" y="124"/>
      <point x="88" y="159" type="curve"/>
      <point x="16" y="159" type="line"/>
      <point x="0" y="85"/>
      <point x="-13" y="-8"/>
      <point x="71" y="-8" type="curve" smooth="yes"/>
      <point x="149" y="-8"/>
      <point x="180" y="77"/>
      <point x="190" y="124" type="curve" smooth="yes"/>
      <point x="207" y="202"/>
      <point x="186" y="262"/>
      <point x="169" y="305" type="curve"/>
      <point x="160" y="334"/>
      <point x="145" y="371"/>
      <point x="154" y="414" type="curve" smooth="yes"/>
      <point x="159" y="435"/>
      <point x="167" y="471"/>
      <point x="180" y="471" type="curve" smooth="yes"/>
      <point x="195" y="471"/>
      <point x="188" y="424"/>
      <point x="185" y="407" type="curve"/>
    </contour>
  </outline>
</glyph>
<glyph name="Tcaron" format="1">
  <advance width="220"/>
  <unicode hex="0164"/>
  <outline>
    <contour>
      <point x="137" y="624" type="line"/>
      <point x="4" y="0" type="line"/>
      <point x="87" y="0" type="line"/>
      <point x="220" y="624" type="line"/>
      <point x="281" y="624" type="line"/>
      <point x="304" y="735" type="line"/>
      <point x="99" y="735" type="line"/>
      <point x="76" y="624" type="line"/>
    </contour>
    <contour>
      <point x="263" y="825" type="line"/>
      <point x="323" y="915" type="line"/>
      <point x="258" y="915" type="line"/>
      <point x="233" y="876" type="line"/>
      <point x="224" y="915" type="line"/>
      <point x="159" y="915" type="line"/>
      <point x="182" y="825" type="line"/>
    </contour>
  </outline>
</glyph>
<glyph name="Tbar" format="1">
  <advance width="220"/>
  <unicode hex="0166"/>
  <outline>
    <contour>
      <point x="290" y="624" type="line"/>
      <point x="314" y="735" type="line"/>
      <point x="109" y="735" type="line"/>
      <point x="85" y="624" type="line"/>
      <point x="146" y="624" type="line"/>
      <point x="130" y="550" type="line"/>
      <point x="107" y="550" type="line"/>
      <point x="91" y="471" type="line"/>
      <point x="114" y="471" type="line"/>
      <point x="13" y="0" type="line"/>
      <point x="96" y="0" type="line"/>
      <point x="197" y="471" type="line"/>
      <point x="225" y="471" type="line"/>
      <point x="241" y="550" type="line"/>
      <point x="213" y="550" type="line"/>
      <point x="229" y="624" type="line"/>
    </contour>
  </outline>
</glyph>
<glyph name="tbar" format="1">
  <advance width="177"/>
  <unicode hex="0167"/>
  <outline>
    <contour>
      <point x="210" y="642" type="line"/>
      <point x="240" y="642" type="line"/>
      <point x="256" y="721" type="line"/>
      <point x="121" y="721" type="line"/>
      <point x="105" y="642" type="line"/>
      <point x="133" y="642" type="line"/>
      <point x="113" y="547" type="line"/>
      <point x="80" y="547" type="line"/>
      <point x="60" y="456" type="line"/>
      <point x="93" y="456" type="line"/>
      <point x="-3" y="0" type="line"/>
      <point x="73" y="0" type="line"/>
      <point x="170" y="456" type="line"/>
      <point x="212" y="456" type="line"/>
      <point x="232" y="547" type="line"/>
      <point x="190" y="547" type="line"/>
      <point x="210" y="642" type="line"/>
      <point x="133" y="642" type="line"/>
    </contour>
  </outline>
</glyph>
<glyph name="utilde" format="1">
  <advance width="232"/>
  <unicode hex="0169"/>
  <outline>
    <contour>
      <point x="103" y="116" type="line" smooth="yes"/>
      <point x="99" y="95"/>
      <point x="92" y="80"/>
      <point x="82" y="80" type="curve" smooth="yes"/>
      <point x="72" y="80"/>
      <point x="69" y="94"/>
      <point x="74" y="115" type="curve" smooth="yes"/>
      <point x="166" y="547" type="line"/>
      <point x="88" y="547" type="line"/>
      <point x="-6" y="99" type="line" smooth="yes"/>
      <point x="-13" y="66"/>
      <point x="-25" y="-8"/>
      <point x="24" y="-8" type="curve" smooth="yes"/>
      <point x="41" y="-8"/>
      <point x="71" y="13"/>
      <point x="84" y="28" type="curve"/>
      <point x="78" y="0" type="line"/>
      <point x="157" y="0" type="line"/>
      <point x="274" y="547" type="line"/>
      <point x="195" y="547" type="line"/>
    </contour>
    <contour>
      <point x="126" y="623" type="line"/>
      <point x="132" y="630"/>
      <point x="160" y="653"/>
      <point x="172" y="653" type="curve" smooth="yes"/>
      <point x="192" y="653"/>
      <point x="199" y="634"/>
      <point x="222" y="634" type="curve" smooth="yes"/>
      <point x="240" y="634"/>
      <point x="257" y="646"/>
      <point x="268" y="659" type="curve"/>
      <point x="285" y="742" type="line"/>
      <point x="277" y="732"/>
      <point x="252" y="713"/>
      <point x="239" y="713" type="curve" smooth="yes"/>
      <point x="220" y="713"/>
      <point x="213" y="730"/>
      <point x="190" y="730" type="curve" smooth="yes"/>
      <point x="175" y="730"/>
      <point x="156" y="722"/>
      <point x="144" y="709" type="curve"/>
    </contour>
  </outline>
</glyph>
<glyph name="Umacron" format="1">
  <advance width="250"/>
  <unicode hex="016A"/>
  <outline>
    <contour>
      <point x="171" y="830" type="line"/>
      <point x="306" y="830" type="line"/>
      <point x="323" y="909" type="line"/>
      <point x="188" y="909" type="line"/>
    </contour>
    <contour>
      <point x="230" y="735" type="line"/>
      <point x="104" y="141" type="line" smooth="yes"/>
      <point x="99" y="117"/>
      <point x="91" y="97"/>
      <point x="79" y="97" type="curve" smooth="yes"/>
      <point x="66" y="97"/>
      <point x="67" y="113"/>
      <point x="73" y="141" type="curve" smooth="yes"/>
      <point x="199" y="735" type="line"/>
      <point x="116" y="735" type="line"/>
      <point x="-9" y="141" type="line" smooth="yes"/>
      <point x="-25" y="66"/>
      <point x="-22" y="-8"/>
      <point x="57" y="-8" type="curve" smooth="yes"/>
      <point x="132" y="-8"/>
      <point x="169" y="58"/>
      <point x="187" y="141" type="curve" smooth="yes"/>
      <point x="313" y="735" type="line"/>
    </contour>
  </outline>
</glyph>
<glyph name="umacron" format="1">
  <advance width="232"/>
  <unicode hex="016B"/>
  <outline>
    <contour>
      <point x="133" y="642" type="line"/>
      <point x="267" y="642" type="line"/>
      <point x="284" y="721" type="line"/>
      <point x="150" y="721" type="line"/>
    </contour>
    <contour>
      <point x="104" y="116" type="line" smooth="yes"/>
      <point x="100" y="95"/>
      <point x="93" y="80"/>
      <point x="83" y="80" type="curve" smooth="yes"/>
      <point x="73" y="80"/>
      <point x="71" y="94"/>
      <point x="75" y="115" type="curve" smooth="yes"/>
      <point x="167" y="547" type="line"/>
      <point x="89" y="547" type="line"/>
      <point x="-5" y="99" type="line" smooth="yes"/>
      <point x="-12" y="66"/>
      <point x="-24" y="-8"/>
      <point x="25" y="-8" type="curve" smooth="yes"/>
      <point x="42" y="-8"/>
      <point x="72" y="13"/>
      <point x="86" y="28" type="curve"/>
      <point x="80" y="0" type="line"/>
      <point x="159" y="0" type="line"/>
      <point x="275" y="547" type="line"/>
      <point x="196" y="547" type="line"/>
    </contour>
  </outline>
</glyph>
<glyph name="ubreve" format="1">
  <advance width="232"/>
  <unicode hex="016D"/>
  <outline>
    <contour>
      <point x="103" y="116" type="line" smooth="yes"/>
      <point x="99" y="95"/>
      <point x="92" y="80"/>
      <point x="82" y="80" type="curve" smooth="yes"/>
      <point x="72" y="80"/>
      <point x="70" y="94"/>
      <point x="74" y="115" type="curve" smooth="yes"/>
      <point x="166" y="547" type="line"/>
      <point x="88" y="547" type="line"/>
      <point x="-6" y="99" type="line" smooth="yes"/>
      <point x="-13" y="66"/>
      <point x="-25" y="-8"/>
      <point x="24" y="-8" type="curve" smooth="yes"/>
      <point x="41" y="-8"/>
      <point x="71" y="13"/>
      <point x="85" y="28" type="curve"/>
      <point x="79" y="0" type="line"/>
      <point x="158" y="0" type="line"/>
      <point x="274" y="547" type="line"/>
      <point x="195" y="547" type="line"/>
    </contour>
    <contour>
      <point x="255" y="740" type="line"/>
      <point x="255" y="740"/>
      <point x="229" y="709"/>
      <point x="213" y="709" type="curve" smooth="yes"/>
      <point x="195" y="709"/>
      <point x="187" y="741"/>
      <point x="187" y="741" type="curve"/>
      <point x="134" y="684" type="line"/>
      <point x="141" y="658"/>
      <point x="167" y="636"/>
      <point x="198" y="636" type="curve" smooth="yes"/>
      <point x="229" y="636"/>
      <point x="258" y="656"/>
      <point x="282" y="684" type="curve"/>
    </contour>
  </outline>
</glyph>
<glyph name="Uring" format="1">
  <advance width="250"/>
  <unicode hex="016E"/>
  <outline>
    <contour>
      <point x="185" y="841"/>
      <point x="203" y="812"/>
      <point x="233" y="812" type="curve" smooth="yes"/>
      <point x="263" y="812"/>
      <point x="292" y="841"/>
      <point x="301" y="882" type="curve" smooth="yes"/>
      <point x="310" y="923"/>
      <point x="293" y="952"/>
      <point x="263" y="952" type="curve" smooth="yes"/>
      <point x="233" y="952"/>
      <point x="203" y="923"/>
      <point x="194" y="882" type="curve" smooth="yes"/>
    </contour>
    <contour>
      <point x="239" y="901"/>
      <point x="248" y="917"/>
      <point x="255" y="917" type="curve" smooth="yes"/>
      <point x="261" y="917"/>
      <point x="265" y="901"/>
      <point x="261" y="882" type="curve" smooth="yes"/>
      <point x="257" y="863"/>
      <point x="246" y="847"/>
      <point x="240" y="847" type="curve" smooth="yes"/>
      <point x="233" y="847"/>
      <point x="231" y="863"/>
      <point x="235" y="882" type="curve" smooth="yes"/>
    </contour>
    <contour>
      <point x="228" y="735" type="line"/>
      <point x="101" y="141" type="line" smooth="yes"/>
      <point x="96" y="117"/>
      <point x="89" y="97"/>
      <point x="77" y="97" type="curve" smooth="yes"/>
      <point x="64" y="97"/>
      <point x="64" y="113"/>
      <point x="70" y="141" type="curve" smooth="yes"/>
      <point x="197" y="735" type="line"/>
      <point x="114" y="735" type="line"/>
      <point x="-12" y="141" type="line" smooth="yes"/>
      <point x="-28" y="66"/>
      <point x="-24" y="-8"/>
      <point x="55" y="-8" type="curve" smooth="yes"/>
      <point x="130" y="-8"/>
      <point x="167" y="58"/>
      <point x="184" y="141" type="curve" smooth="yes"/>
      <point x="311" y="735" type="line"/>
    </contour>
  </outline>
</glyph>
<glyph name="uring" format="1">
  <advance width="232"/>
  <unicode hex="016F"/>
  <outline>
    <contour>
      <point x="146" y="653"/>
      <point x="164" y="624"/>
      <point x="194" y="624" type="curve" smooth="yes"/>
      <point x="224" y="624"/>
      <point x="253" y="653"/>
      <point x="262" y="694" type="curve" smooth="yes"/>
      <point x="271" y="735"/>
      <point x="254" y="764"/>
      <point x="224" y="764" type="curve" smooth="yes"/>
      <point x="194" y="764"/>
      <point x="164" y="735"/>
      <point x="155" y="694" type="curve" smooth="yes"/>
    </contour>
    <contour>
      <point x="200" y="713"/>
      <point x="209" y="729"/>
      <point x="216" y="729" type="curve" smooth="yes"/>
      <point x="222" y="729"/>
      <point x="226" y="713"/>
      <point x="222" y="694" type="curve" smooth="yes"/>
      <point x="218" y="675"/>
      <point x="207" y="659"/>
      <point x="201" y="659" type="curve" smooth="yes"/>
      <point x="194" y="659"/>
      <point x="192" y="675"/>
      <point x="196" y="694" type="curve" smooth="yes"/>
    </contour>
    <contour>
      <point x="102" y="116" type="line" smooth="yes"/>
      <point x="98" y="95"/>
      <point x="90" y="80"/>
      <point x="80" y="80" type="curve" smooth="yes"/>
      <point x="70" y="80"/>
      <point x="68" y="94"/>
      <point x="73" y="115" type="curve" smooth="yes"/>
      <point x="165" y="547" type="line"/>
      <point x="87" y="547" type="line"/>
      <point x="-8" y="99" type="line" smooth="yes"/>
      <point x="-15" y="66"/>
      <point x="-26" y="-8"/>
      <point x="23" y="-8" type="curve" smooth="yes"/>
      <point x="40" y="-8"/>
      <point x="70" y="13"/>
      <point x="83" y="28" type="curve"/>
      <point x="77" y="0" type="line"/>
      <point x="156" y="0" type="line"/>
      <point x="273" y="547" type="line"/>
      <point x="194" y="547" type="line"/>
    </contour>
  </outline>
</glyph>
<glyph name="Uogonek" format="1">
  <advance width="250"/>
  <unicode hex="0172"/>
  <outline>
    <contour>
      <point x="249" y="735" type="line"/>
      <point x="123" y="143" type="line" smooth="yes"/>
      <point x="113" y="95"/>
      <point x="96" y="97"/>
      <point x="96" y="97" type="curve"/>
      <point x="87" y="100"/>
      <point x="86" y="116"/>
      <point x="91" y="141" type="curve" smooth="yes"/>
      <point x="218" y="735" type="line"/>
      <point x="135" y="735" type="line"/>
      <point x="8" y="141" type="line" smooth="yes"/>
      <point x="-6" y="66"/>
      <point x="-3" y="-7"/>
      <point x="75" y="-8" type="curve" smooth="yes"/>
      <point x="76" y="-8" type="line"/>
      <point x="79" y="-8" type="line" smooth="yes"/>
      <point x="86" y="-8"/>
      <point x="92" y="-8"/>
      <point x="97" y="-7" type="curve"/>
      <point x="88" y="-17"/>
      <point x="80" y="-26"/>
      <point x="77" y="-31" type="curve"/>
      <point x="63" y="-50"/>
      <point x="46" y="-79"/>
      <point x="41" y="-103" type="curve" smooth="yes"/>
      <point x="31" y="-148"/>
      <point x="48" y="-188"/>
      <point x="93" y="-188" type="curve" smooth="yes"/>
      <point x="106" y="-188"/>
      <point x="117" y="-185"/>
      <point x="135" y="-176" type="curve"/>
      <point x="155" y="-101" type="line"/>
      <point x="138" y="-112"/>
      <point x="122" y="-121"/>
      <point x="117" y="-121" type="curve" smooth="yes"/>
      <point x="107" y="-121"/>
      <point x="98" y="-112"/>
      <point x="104" y="-83" type="curve"/>
      <point x="106" y="-71"/>
      <point x="110" y="-60"/>
      <point x="115" y="-50" type="curve" smooth="yes"/>
      <point x="127" y="-26"/>
      <point x="136" y="-12"/>
      <point x="146" y="0" type="curve"/>
      <point x="117" y="0" type="line"/>
      <point x="165" y="20"/>
      <point x="191" y="75"/>
      <point x="205" y="141" type="curve" smooth="yes"/>
      <point x="332" y="735" type="line"/>
    </contour>
  </outline>
</glyph>
<glyph name="wcircumflex" format="1">
  <advance width="295"/>
  <unicode hex="0175"/>
  <outline>
    <contour>
      <point x="206" y="727" type="line"/>
      <point x="145" y="637" type="line"/>
      <point x="210" y="637" type="line"/>
      <point x="236" y="676" type="line"/>
      <point x="244" y="637" type="line"/>
      <point x="309" y="637" type="line"/>
      <point x="287" y="727" type="line"/>
    </contour>
    <contour>
      <point x="181" y="0" type="line"/>
      <point x="345" y="547" type="line"/>
      <point x="274" y="547" type="line"/>
      <point x="202" y="296" type="line"/>
      <point x="234" y="547" type="line"/>
      <point x="186" y="547" type="line"/>
      <point x="111" y="296" type="line"/>
      <point x="145" y="547" type="line"/>
      <point x="74" y="547" type="line"/>
      <point x="7" y="0" type="line"/>
      <point x="71" y="0" type="line"/>
      <point x="148" y="260" type="line"/>
      <point x="116" y="0" type="line"/>
    </contour>
  </outline>
</glyph>
<glyph name="Ycircumflex" format="1">
  <advance width="235"/>
  <unicode hex="0176"/>
  <outline>
    <contour>
      <point x="208" y="890" type="line"/>
      <point x="147" y="800" type="line"/>
      <point x="212" y="800" type="line"/>
      <point x="238" y="839" type="line"/>
      <point x="246" y="800" type="line"/>
      <point x="311" y="800" type="line"/>
      <point x="289" y="890" type="line"/>
    </contour>
    <contour>
      <point x="188" y="735" type="line"/>
      <point x="106" y="735" type="line"/>
      <point x="86" y="313" type="line"/>
      <point x="19" y="0" type="line"/>
      <point x="102" y="0" type="line"/>
      <point x="169" y="313" type="line"/>
      <point x="327" y="735" type="line"/>
      <point x="245" y="735" type="line"/>
      <point x="221" y="663"/>
      <point x="195" y="592"/>
      <point x="171" y="521" type="curve"/>
    </contour>
  </outline>
</glyph>
<glyph name="Zacute" format="1">
  <advance width="214"/>
  <unicode hex="0179"/>
  <outline>
    <contour>
      <point x="213" y="915" type="line"/>
      <point x="163" y="825" type="line"/>
      <point x="226" y="825" type="line"/>
      <point x="293" y="915" type="line"/>
    </contour>
    <contour>
      <point x="-51" y="0" type="line"/>
      <point x="138" y="0" type="line"/>
      <point x="161" y="107" type="line"/>
      <point x="57" y="107" type="line"/>
      <point x="271" y="628" type="line"/>
      <point x="294" y="735" type="line"/>
      <point x="118" y="735" type="line"/>
      <point x="95" y="628" type="line"/>
      <point x="182" y="628" type="line"/>
      <point x="-26" y="116" type="line"/>
    </contour>
  </outline>
</glyph>
<glyph name="zdotaccent" format="1">
  <advance width="186"/>
  <unicode hex="017C"/>
  <outline>
    <contour>
      <point x="141" y="634" type="line"/>
      <point x="219" y="634" type="line"/>
      <point x="241" y="735" type="line"/>
      <point x="163" y="735" type="line"/>
    </contour>
    <contour>
      <point x="-44" y="0" type="line"/>
      <point x="120" y="0" type="line"/>
      <point x="140" y="92" type="line"/>
      <point x="57" y="92" type="line"/>
      <point x="219" y="465" type="line"/>
      <point x="237" y="547" type="line"/>
      <point x="85" y="547" type="line"/>
      <point x="65" y="455" type="line"/>
      <point x="135" y="455" type="line"/>
      <point x="-26" y="82" type="line"/>
    </contour>
  </outline>
</glyph>
<glyph name="zcaron" format="1">
  <advance width="186"/>
  <unicode hex="017E"/>
  <outline>
    <contour>
      <point x="-43" y="0" type="line"/>
      <point x="121" y="0" type="line"/>
      <point x="140" y="92" type="line"/>
      <point x="57" y="92" type="line"/>
      <point x="220" y="465" type="line"/>
      <point x="237" y="547" type="line"/>
      <point x="85" y="547" type="line"/>
      <point x="66" y="455" type="line"/>
      <point x="136" y="455" type="line"/>
      <point x="-26" y="82" type="line"/>
    </contour>
    <contour>
      <point x="217" y="637" type="line"/>
      <point x="277" y="727" type="line"/>
      <point x="212" y="727" type="line"/>
      <point x="187" y="688" type="line"/>
      <point x="178" y="727" type="line"/>
      <point x="113" y="727" type="line"/>
      <point x="136" y="637" type="line"/>
    </contour>
  </outline>
</glyph>
<glyph name="longs" format="1">
  <advance width="169"/>
  <unicode hex="017F"/>
  <outline>
    <contour>
      <point x="27" y="0" type="line"/>
      <point x="147" y="565" type="line" smooth="yes"/>
      <point x="160" y="628"/>
      <point x="172" y="645"/>
      <point x="195" y="645" type="curve" smooth="yes"/>
      <point x="204" y="645"/>
      <point x="214" y="643"/>
      <point x="227" y="637" type="curve"/>
      <point x="252" y="717" type="line"/>
      <point x="234" y="724"/>
      <point x="217" y="727"/>
      <point x="202" y="727" type="curve" smooth="yes"/>
      <point x="151" y="727"/>
      <point x="110" y="694"/>
      <point x="85" y="573" type="curve" smooth="yes"/>
      <point x="-36" y="0" type="line"/>
    </contour>
  </outline>
</glyph>
<glyph name="uni021A" format="1">
  <advance width="220"/>
  <unicode hex="021A"/>
  <outline>
    <contour>
      <point x="156" y="624" type="line"/>
      <point x="23" y="0" type="line"/>
      <point x="106" y="0" type="line"/>
      <point x="239" y="624" type="line"/>
      <point x="300" y="624" type="line"/>
      <point x="324" y="735" type="line"/>
      <point x="119" y="735" type="line"/>
      <point x="95" y="624" type="line"/>
    </contour>
    <contour>
      <point x="97" y="-54" type="line"/>
      <point x="29" y="-54" type="line"/>
      <point x="14" y="-123" type="line"/>
      <point x="32" y="-123" type="line"/>
      <point x="7" y="-188" type="line"/>
      <point x="56" y="-188" type="line"/>
      <point x="82" y="-123" type="line"/>
    </contour>
  </outline>
</glyph>
<glyph name="uni021B" format="1">
  <advance width="177"/>
  <unicode hex="021B"/>
  <outline>
    <contour>
      <point x="100" y="-54" type="line"/>
      <point x="32" y="-54" type="line"/>
      <point x="17" y="-123" type="line"/>
      <point x="35" y="-123" type="line"/>
      <point x="9" y="-188" type="line"/>
      <point x="58" y="-188" type="line"/>
      <point x="85" y="-123" type="line"/>
    </contour>
    <contour>
      <point x="153" y="682" type="line"/>
      <point x="125" y="547" type="line"/>
      <point x="92" y="547" type="line"/>
      <point x="72" y="456" type="line"/>
      <point x="105" y="456" type="line"/>
      <point x="8" y="0" type="line"/>
      <point x="85" y="0" type="line"/>
      <point x="182" y="456" type="line"/>
      <point x="224" y="456" type="line"/>
      <point x="244" y="547" type="line"/>
      <point x="202" y="547" type="line"/>
      <point x="230" y="682" type="line"/>
    </contour>
  </outline>
</glyph>
<glyph name="circumflex" format="1">
  <advance width="329"/>
  <unicode hex="02C6"/>
  <outline>
    <contour>
      <point x="192" y="727" type="line"/>
      <point x="130" y="637" type="line"/>
      <point x="195" y="637" type="line"/>
      <point x="221" y="676" type="line"/>
      <point x="229" y="637" type="line"/>
      <point x="294" y="637" type="line"/>
      <point x="273" y="727" type="line"/>
    </contour>
    <contour>
      <point x="212" y="547" type="move" name="_top"/>
    </contour>
  </outline>
</glyph>
<glyph name="breve" format="1">
  <advance width="330"/>
  <unicode hex="02D8"/>
  <outline>
    <contour>
      <point x="269" y="740" type="line"/>
      <point x="269" y="740"/>
      <point x="243" y="709"/>
      <point x="227" y="709" type="curve" smooth="yes"/>
      <point x="209" y="709"/>
      <point x="201" y="741"/>
      <point x="201" y="741" type="curve"/>
      <point x="148" y="684" type="line"/>
      <point x="155" y="658"/>
      <point x="181" y="636"/>
      <point x="212" y="636" type="curve" smooth="yes"/>
      <point x="243" y="636"/>
      <point x="272" y="656"/>
      <point x="296" y="684" type="curve"/>
    </contour>
    <contour>
      <point x="222" y="547" type="move" name="_top"/>
    </contour>
  </outline>
</glyph>
<glyph name="dotaccent" format="1">
  <advance width="329"/>
  <unicode hex="02D9"/>
  <outline>
    <contour>
      <point x="172" y="634" type="line"/>
      <point x="251" y="634" type="line"/>
      <point x="272" y="735" type="line"/>
      <point x="193" y="735" type="line"/>
    </contour>
  </outline>
</glyph>
<glyph name="ring" format="1">
  <advance width="329"/>
  <unicode hex="02DA"/>
  <outline>
    <contour>
      <point x="161" y="653"/>
      <point x="178" y="624"/>
      <point x="208" y="624" type="curve" smooth="yes"/>
      <point x="237" y="624"/>
      <point x="268" y="653"/>
      <point x="276" y="694" type="curve" smooth="yes"/>
      <point x="285" y="735"/>
      <point x="267" y="764"/>
      <point x="238" y="764" type="curve" smooth="yes"/>
      <point x="208" y="764"/>
      <point x="178" y="735"/>
      <point x="169" y="694" type="curve" smooth="yes"/>
    </contour>
    <contour>
      <point x="212" y="713"/>
      <point x="223" y="725"/>
      <point x="230" y="725" type="curve" smooth="yes"/>
      <point x="236" y="725"/>
      <point x="242" y="713"/>
      <point x="238" y="694" type="curve" smooth="yes"/>
      <point x="234" y="675"/>
      <point x="222" y="662"/>
      <point x="216" y="662" type="curve" smooth="yes"/>
      <point x="209" y="662"/>
      <point x="204" y="675"/>
      <point x="208" y="694" type="curve" smooth="yes"/>
    </contour>
    <contour>
      <point x="222.679" y="547" type="move" name="_top"/>
    </contour>
  </outline>
</glyph>
<glyph name="hungarumlaut" format="1">
  <advance width="330"/>
  <unicode hex="02DD"/>
  <outline>
    <contour>
      <point x="167" y="727" type="line"/>
      <point x="116" y="637" type="line"/>
      <point x="180" y="637" type="line"/>
      <point x="247" y="727" type="line"/>
    </contour>
    <contour>
      <point x="276" y="727" type="line"/>
      <point x="225" y="637" type="line"/>
      <point x="289" y="637" type="line"/>
      <point x="356" y="727" type="line"/>
    </contour>
    <contour>
      <point x="236" y="547" type="move" name="_top"/>
    </contour>
  </outline>
</glyph>
<glyph name="endash" format="1">
  <advance width="266"/>
  <unicode hex="2013"/>
  <outline>
    <contour>
      <point x="41" y="317" type="line"/>
      <point x="252" y="317" type="line"/>
      <point x="272" y="412" type="line"/>
      <point x="61" y="412" type="line"/>
    </contour>
  </outline>
</glyph>
<glyph name="quoteleft" format="1">
  <advance width="121"/>
  <unicode hex="2018"/>
  <outline>
    <contour>
      <point x="44" y="494" type="line"/>
      <point x="125" y="494" type="line"/>
      <point x="149" y="605" type="line"/>
      <point x="128" y="605" type="line"/>
      <point x="176" y="735" type="line"/>
      <point x="128" y="735" type="line"/>
      <point x="68" y="605" type="line"/>
    </contour>
  </outline>
</glyph>
<glyph name="quoteright" format="1">
  <advance width="121"/>
  <unicode hex="2019"/>
  <outline>
    <contour>
      <point x="175" y="735" type="line"/>
      <point x="94" y="735" type="line"/>
      <point x="71" y="624" type="line"/>
      <point x="92" y="624" type="line"/>
      <point x="43" y="494" type="line"/>
      <point x="91" y="494" type="line"/>
      <point x="152" y="624" type="line"/>
    </contour>
  </outline>
</glyph>
<glyph name="quotedblright" format="1">
  <advance width="228"/>
  <unicode hex="201D"/>
  <outline>
    <contour>
      <point x="178" y="735" type="line"/>
      <point x="97" y="735" type="line"/>
      <point x="74" y="624" type="line"/>
      <point x="95" y="624" type="line"/>
      <point x="46" y="494" type="line"/>
      <point x="94" y="494" type="line"/>
      <point x="155" y="624" type="line"/>
    </contour>
    <contour>
      <point x="286" y="735" type="line"/>
      <point x="205" y="735" type="line"/>
      <point x="182" y="624" type="line"/>
      <point x="203" y="624" type="line"/>
      <point x="154" y="494" type="line"/>
      <point x="202" y="494" type="line"/>
      <point x="263" y="624" type="line"/>
    </contour>
  </outline>
</glyph>
